<?xml version="1.0" encoding="UTF-8" standalone="no"?>
<svg width="160px" height="160px" viewBox="0 0 16 16" version="1.1" xmlns="http://www.w3.org/2000/svg" xmlns:xlink="http://www.w3.org/1999/xlink" xmlns:sketch="http://www.bohemiancoding.com/sketch/ns">

    <g stroke="none" stroke-width="1" fill="none" fill-rule="evenodd" sketch:type="MSPage">
        <g sketch:type="MSArtboardGroup" transform="translate(-212.000000, -217.000000)" fill="#FF0000">
            <path d="M214,227 L214,221 C214,220 215,219 216,219 L226,219 C227,219 228,220 228,221 L226,221 L224,224 L226,227 L228,227 C228,228 227,229 226,229 L216,229 C215.652704,229 215.305407,228.879385 215,228.680045 L215,229 L214,229 L212,227 L212,223.075077 L212,219.042901 C212,218.02145 213.015228,217 214.030457,217 L224.182741,217 C224.923858,217 225.654822,217.541369 226,218.235955 C225.746193,218.103166 225.472081,218.02145 225.19797,218.02145 L215.045685,218.02145 C214.030457,218.02145 213.015228,219.042901 213.015228,220.064351 L213.015228,226.015228 L214,227 L214,227 Z M228,222 L227,222 L226,224 L227,226 L228,226 L228,222 Z" id="Финансы" sketch:type="MSShapeGroup"></path>
        </g>
    </g>

    <g stroke="none" stroke-width="2" fill="none" fill-rule="evenodd" sketch:type="MSPage">
        <g sketch:type="MSArtboardGroup" transform="translate(-123.000000, -217.000000)" fill="green">
            <path d="M131.015998,220.723105 C130.717777,220.899187 130.370216,221 130,221 C129.369897,221 128.810686,220.713208 128.444926,220.262181 L126.258551,222.448556 C126.71022,222.816048 127,223.375827 127,224 C127,225.11 126.1,226 125,226 C123.89,226 123,225.11 123,224 C123,222.9 123.89,222 125,222 C125.092918,222 125.184408,222.006422 125.27405,222.018843 L125.27405,222.018843 L128.018417,219.274476 C128.006271,219.184799 128,219.093174 128,219 C128,217.9 128.89,217 130,217 C131.1,217 132,217.9 132,219 C132,219.371826 131.89901,219.718966 131.723343,220.016236 L135.983764,224.276657 C136.281034,224.10099 136.628174,224 137,224 C138.1,224 139,224.9 139,226 C139,227.11 138.1,228 137,228 C135.89,228 135,227.11 135,226 C135,225.629784 135.100813,225.282223 135.276895,224.984002 L131.015998,220.723105 Z" id="Бизнес-процессы" sketch:type="MSShapeGroup"></path>
        </g>
    </g>

    <g stroke="none" stroke-width="1" fill="none" fill-rule="evenodd" sketch:type="MSPage">
        <g sketch:type="MSArtboardGroup" transform="translate(-167.000000, -298.000000)" fill="#FF0000">
            <path d="M168.5,306 L175,306 C173.9,306 173,305.1 173,304 C173,303.64 173.1,303.29 173.27,303 L168.5,303 C167.75,303 167,303.75 167,304.5 C167,305.25 167.75,306 168.5,306 L168.5,306 Z M177,304 C177,305.1 176.1,306 175,306 L181.5,306 C182.25,306 183,305.25 183,304.5 C183,303.75 182.25,303 181.5,303 L176.73,303 C176.9,303.29 177,303.64 177,304 Z M174,299 C174,298.5 174.5,298 175,298 C175.5,298 176,298.5 176,299 L176,304 C176,304.5 175.5,305 175,305 C174.5,305 174,304.5 174,304 L174,299 Z M168,306 L169,311 L181,311 L182,306 L168,306 Z M172,310 L171,307 L172,307 L172,310 L172,310 Z M174,310 L173,307 L174,307 L174,310 L174,310 Z M177,310 L176,307 L177,307 L177,310 L177,310 Z M179,310 L178,307 L179,307 L179,310 L179,310 Z" id="Заказы" sketch:type="MSShapeGroup"></path>
        </g>
    </g>

    <g stroke="none" stroke-width="1" fill="none" fill-rule="evenodd" sketch:type="MSPage">
        <g sketch:type="MSArtboardGroup" transform="translate(-125.000000, -335.000000)" fill="#FF0000">
            <path d="M125,337 L125,338 L125,339 L125,349 L126,350 L135,350 L137,350 L138,349 L138,342 L138,339 L138,338 L138,337 L137,336 L135,336 L135,337 L137,337 L137,338 L137,339 L137,343 L137,349 L135,349 L126,349 L126,339 L126,338 L126,337 L128,337 L128,336 L126,336 L125,337 L125,337 Z M134,338 L134,337 L134,336 L134,335 L132,335 L129,335 L129,336 L129,337 L129,338 L134,338 L134,338 Z M131,336 L131.5,336 L132,336 L132,336.5 L132,337 L131.5,337 L131,337 L131,336.5 L131,336 L131,336 Z M127,339 L127,342 L130,342 L130,339 L127,339 L127,339 Z M131,339 L131,340 L136,340 L136,339 L131,339 L131,339 Z M131,341 L131,342 L136,342 L136,341 L131,341 L131,341 Z M127,343 L127,344 L136,344 L136,343 L127,343 L127,343 Z M127,345 L127,346 L136,346 L136,345 L127,345 L127,345 Z M127,347 L127,348 L136,348 L136,347 L127,347 L127,347 Z" id="Задачи" sketch:type="MSShapeGroup"></path>
        </g>
    </g>

    <g stroke="none" stroke-width="1" fill="none" fill-rule="evenodd" sketch:type="MSPage">
        <g sketch:type="MSArtboardGroup" transform="translate(-213.000000, -177.000000)" fill="#FF0000">
            <path d="M215,181 L215,182 L215,185 L215,186 L216,186 L219,186 L219,188 L219,189 L224,189 L225,189 L225,188 L225,183 L225,182 L224,182 L222,182 L222,181 L216,181 L215,181 L215,181 Z M216,182 L221,182 L221,185 L216,185 L216,182 L216,182 Z M220,186 L222,186 L223,183 L224,183 L224,188 L220,188 L220,186 L220,186 Z M213,178 L213,179 L213,180 L213,190 L214,191 L226,191 L227,190 L227,180 L227,179 L227,178 L226,177 L214,177 L213,178 L213,178 Z M214,190 L214,180 L226,180 L226,190 L214,190 L214,190 Z M214,179 L214,178 L226,178 L226,179 L214,179 L214,179 Z" id="Документы" sketch:type="MSShapeGroup"></path>
        </g>
    </g>

    <g stroke="none" stroke-width="1" fill="none" fill-rule="evenodd" sketch:type="MSPage">
        <g sketch:type="MSArtboardGroup" transform="translate(-166.000000, -217.000000)" fill="#FF0000">
            <path d="M166,217 L166,229 L167,229 L167,217 L166,217 Z M178,217 L178,229 L179,229 L179,217 L178,217 Z M176,217 L176,229 L177,229 L177,217 L176,217 Z M171,217 L171,229 L172,229 L172,217 L171,217 Z M168,217 L168,229 L170,229 L170,217 L168,217 Z M173,217 L173,229 L175,229 L175,217 L173,217 Z M180,217 L180,229 L182,229 L182,217 L180,217 Z" id="Продукты" sketch:type="MSShapeGroup"></path>
        </g>
    </g>

    <g stroke="none" stroke-width="1" fill="none" fill-rule="evenodd" sketch:type="MSPage">
        <g sketch:type="MSArtboardGroup" transform="translate(-167.000000, -256.000000)" fill="#FF0000">
            <path d="M173.750499,256.168555 C173.233196,256.168555 173.680862,256.327195 173.402314,256.366856 C173.123766,256.406516 173.770396,256.327195 172.934752,256.485836 C172.099108,256.654391 171.929989,257.725212 171.890197,258.121813 C171.850404,258.518414 171.840456,258.637394 171.860352,259.232295 C171.939938,259.589235 171.542012,259.589235 171.542012,259.589235 C171.034657,259.55949 170.955072,261.116147 170.955072,261.116147 C171.024709,261.502833 170.925227,261.691218 171.671338,261.988669 C172.019523,262.990085 172.924804,263.495751 172.924804,263.495751 C172.924804,263.495751 172.964596,264.140227 172.984492,264.596317 C172.904907,264.566572 172.845218,265.776204 170.547198,266.113314 C168.239229,266.450425 167.801511,267.194051 167.363792,267.610482 C166.926074,268.026912 167.005659,270 167.005659,270 L176.516083,269.96034 C175.561061,269.137394 174.944276,267.917847 174.944276,266.55949 C174.944276,265.478754 175.332254,264.487252 175.978883,263.713881 L175.988831,263.575071 C175.988831,263.575071 176.734942,262.96034 177.083127,261.958924 C177.640223,261.611898 177.849134,261.562323 177.948615,261.155807 C177.948615,261.155807 178.197319,259.628895 177.60043,259.628895 C177.60043,259.628895 176.914008,259.668555 176.993593,259.311615 C177.073179,258.954674 177.043334,258.835694 177.003542,258.439093 C176.963749,258.042493 177.202504,256.902266 176.36686,256.743626 C175.799816,256.644476 175.978883,256.803116 175.700335,256.763456 C175.421787,256.723796 175.093498,256 174.576195,256 L173.750499,256.168555 Z M179.5,263 C177.57,263 176,264.57 176,266.5 C176,268.43 177.57,270 179.5,270 C181.43,270 183,268.43 183,266.5 C183,264.57 181.43,263 179.5,263 Z M180,267 L180,269 L179,269 L179,267 L177,267 L177,266 L179,266 L179,264 L180,264 L180,266 L182,266 L182,267 L180,267 L180,267 Z" id="Контакты" sketch:type="MSShapeGroup"></path>
        </g>
    </g>

    <g stroke="none" stroke-width="1" fill="none" fill-rule="evenodd" sketch:type="MSPage">
        <g sketch:type="MSArtboardGroup" transform="translate(-126.000000, -256.000000)" fill="#FF0000">
            <path d="M128,260 L128,261 L127,261 L127,262 L128,262 L128,263 L127,263 L127,264 L128,264 L128,265 L127,265 L127,266 L128,266 L128,267 L127,267 L127,268 L128,268 L128,269 L129,269 L129,268 L138,268 L138,267 L129,267 L129,266 L138,266 L138,265 L129,265 L129,264 L138,264 L138,263 L129,263 L129,262 L138,262 L138,261 L129,261 L129,260 L128,260 Z M137,257 L137,256 L136,256 L136,257 L136,258 L137,258 L137,257 Z M135,257 L135,256 L134,256 L134,257 L134,258 L135,258 L135,257 L135,257 Z M133,257 L133,256 L132,256 L132,257 L132,258 L133,258 L133,257 L133,257 Z M131,257 L131,256 L130,256 L130,257 L130,258 L131,258 L131,257 L131,257 Z M129,257 L129,256 L128,256 L128,257 L128,258 L129,258 L129,257 L129,257 Z M126,258 L126,259 L126,260 L126,269 L127,270 L138,270 L139,269 L139,260 L139,259 L139,258 L138,257 L138,258 L138,259 L137,259 L136,259 L135,259 L134,259 L133,259 L132,259 L131,259 L130,259 L129,259 L128,259 L127,259 L127,258 L127,257 L126,258 L126,258 Z M127,269 L127,260 L128,260 L129,260 L138,260 L138,269 L127,269 L127,269 Z" id="Календарь" sketch:type="MSShapeGroup"></path>
        </g>
    </g>

    <g stroke="none" stroke-width="1" fill="none" fill-rule="evenodd" sketch:type="MSPage">
        <g sketch:type="MSArtboardGroup" transform="translate(-125.000000, -374.000000)" fill="#FF0000">
            <path d="M130,375 L130,374 L129,374 L129,375 L129,376 L130,376 L130,375 L130,375 Z M128,375 L128,374 L127,374 L127,375 L127,376 L128,376 L128,375 L128,375 Z M136,375 L136,374 L135,374 L135,375 L135,376 L136,376 L136,375 L136,375 Z M134,375 L134,374 L133,374 L133,375 L133,376 L134,376 L134,375 L134,375 Z M132,375 L132,374 L131,374 L131,375 L131,376 L132,376 L132,375 L132,375 Z M129,380 L129,381 L130,381 L130,385 L131,385 L131,380 L130,380 L129,380 L129,380 Z M132,380 L132,381 L133,381 L133,385 L134,385 L134,380 L133,380 L132,380 L132,380 Z M125,376 L125,377 L125,378 L125,387 L126,388 L137,388 L138,387 L138,378 L138,377 L138,376 L137,375 L137,376 L137,377 L136,377 L135,377 L134,377 L133,377 L132,377 L131,377 L130,377 L129,377 L128,377 L127,377 L126,377 L126,376 L126,375 L125,376 L125,376 Z M126,387 L126,378 L127,378 L128,378 L137,378 L137,387 L126,387 L126,387 Z" id="События" sketch:type="MSShapeGroup"></path>
        </g>
    </g>

    <g stroke="none" stroke-width="1" fill="none" fill-rule="evenodd" sketch:type="MSPage">
        <g sketch:type="MSArtboardGroup" transform="translate(-212.000000, -255.000000)" fill="#FF0000">
            <path d="M217,257.960526 L219.989967,261 L223,257.960526 L221.013378,257.960526 L221.013378,256.3125 C221.013378,255.651316 220.682274,255 220.010033,255 C219.337793,255 219.006689,255.661184 219.006689,256.3125 L219.006689,257.960526 L217,257.960526 Z M220.52,264 C220.52,265.1 220.56,266 219,266 L226.5,266 C227.25,266 228,265.25 228,264.5 C228,263.75 227.25,263 226.5,263 L220.25,263 C220.42,263.29 220.52,263.64 220.52,264 Z M213,266 L214,271 L226,271 L227,266 L213,266 Z M217,270 L216,267 L217,267 L217,270 L217,270 Z M219,270 L218,267 L219,267 L219,270 L219,270 Z M222,270 L221,267 L222,267 L222,270 L222,270 Z M224,270 L223,267 L224,267 L224,270 Z M213.818023,265 C212.263429,265 211.258126,263.09 212.688351,263 L212.781627,263 L217.963605,263 C218.481802,263 219,263.5 219,264 C219,264.5 218.481802,265 217.963605,265 L213.818023,265 Z" id="Склады" sketch:type="MSShapeGroup"></path>
        </g>
    </g>

    <g stroke="none" stroke-width="1" fill="none" fill-rule="evenodd" sketch:type="MSPage">
        <g sketch:type="MSArtboardGroup" transform="translate(-126.000000, -297.000000)" fill="#FF0000">
            <path d="M132.5,304 L129,307.161765 L131,307.161765 L131,309 L134,309 L134,307.161765 L136,307.161765 L132.5,304 Z M135,299 L135,298 L135,297 L134,297 L130,297 L130,298 L130,299 L130,300 L130,301 L132,301 L135,301 L135,299 Z M133,299 L132.5,299 L132,299 L132,298.5 L132,298 L132.5,298 L133,298 L133,298.5 L133,299 L133,299 Z M126,299 L126,300 L126,301 L126,311 L127,312 L138,312 L139,311 L139,305 L139,304 L139,299 L138,298 L136,298 L136,299 L138,299 L138,300 L136,300 L136,301 L138,301 L138,305 L138,311 L127,311 L127,301 L129,301 L129,300 L127,300 L127,299 L129,299 L129,298 L127,298 L126,299 L126,299 Z" id="Проекты" sketch:type="MSShapeGroup"></path>
        </g>
    </g>

    <g stroke="none" stroke-width="1" fill="none" fill-rule="evenodd" sketch:type="MSPage">
        <g sketch:type="MSArtboardGroup" transform="translate(-212.000000, -217.000000)" fill="#FF0000">
            <path d="M214,227 L214,221 C214,220 215,219 216,219 L226,219 C227,219 228,220 228,221 L226,221 L224,224 L226,227 L228,227 C228,228 227,229 226,229 L216,229 C215.652704,229 215.305407,228.879385 215,228.680045 L215,229 L214,229 L212,227 L212,223.075077 L212,219.042901 C212,218.02145 213.015228,217 214.030457,217 L224.182741,217 C224.923858,217 225.654822,217.541369 226,218.235955 C225.746193,218.103166 225.472081,218.02145 225.19797,218.02145 L215.045685,218.02145 C214.030457,218.02145 213.015228,219.042901 213.015228,220.064351 L213.015228,226.015228 L214,227 L214,227 Z M228,222 L227,222 L226,224 L227,226 L228,226 L228,222 Z" id="Финансы" sketch:type="MSShapeGroup"></path>
        </g>
    </g>

    <g stroke="none" stroke-width="1" fill="none" fill-rule="evenodd" sketch:type="MSPage">
        <g sketch:type="MSArtboardGroup" transform="translate(-214.000000, -299.000000)" fill="#FF0000">
            <path d="M220,310 L219,310 L220,311 L226,311 L226,299 L214,299 L214,305 L215,306 L215,305 L219,305 L220,305 L220,306 L220,310 L220,310 Z M219,306 L215,306 L219,310 L219,306 L219,306 Z" id="Файлы" sketch:type="MSShapeGroup"></path>
        </g>
    </g>

    <g stroke="none" stroke-width="1" fill="none" fill-rule="evenodd" sketch:type="MSPage">
        <g sketch:type="MSArtboardGroup" transform="translate(-168.000000, -179.000000)" fill="#FF0000">
            <path d="M174,181.44 L178,184 L178,182 L181,182 L181,187 L178,187 L178,185 L174,187.44 L178,190 L178,188 L180,188 C181,188 182,187 182,186 L182,183 C182,182 181,181 180,181 L178,181 L178,179 L174,181.44 L174,181.44 Z M168,179 L168,184 L173,184 L173,179 L168,179 L168,179 Z M168,185 L168,190 L173,190 L173,185 L168,185 L168,185 Z M169,186 L172,186 L172,189 L169,189 L169,186 L169,186 Z" id="Структура" sketch:type="MSShapeGroup"></path>
        </g>
    </g>

    <g stroke="none" stroke-width="1" fill="none" fill-rule="evenodd" sketch:type="MSPage">
        <g sketch:type="MSArtboardGroup" transform="translate(-125.000000, -177.000000)" fill="black">
            <path d="M125,178 L125,179 L125,180 L125,190 L126,191 L138,191 L139,190 L139,180 L139,179 L139,178 L138,177 L126,177 L125,178 L125,178 Z M126,190 L126,180 L138,180 L138,190 L126,190 L126,190 Z M131,186 L128,186 L128,184 L131,184 L131,181 L133,181 L133,184 L136,184 L136,186 L133,186 L133,189 L131,189 L131,186 Z M126,179 L126,178 L138,178 L138,179 L126,179 Z" id="Создать" sketch:type="MSShapeGroup"></path>
        </g>
    </g>
</svg>