<?xml version="1.0" encoding="UTF-8" standalone="no"?>
<svg width="13px" height="14px" viewBox="0 0 13 14" version="1.1" xmlns="http://www.w3.org/2000/svg" xmlns:xlink="http://www.w3.org/1999/xlink" xmlns:sketch="http://www.bohemiancoding.com/sketch/ns">
    <!-- Generator: Sketch 3.3.3 (12072) - http://www.bohemiancoding.com/sketch -->
    <title>icon-calendar-2</title>
    <desc>Created with Sketch.</desc>
    <defs></defs>
    <g id="Page-1" stroke="none" stroke-width="1" fill="none" fill-rule="evenodd" sketch:type="MSPage">
        <g id="icon-calendar-2" sketch:type="MSLayerGroup" fill="#0375C2">
            <path d="M2,4 L2,5 L1,5 L1,6 L2,6 L2,7 L1,7 L1,8 L2,8 L2,9 L1,9 L1,10 L2,10 L2,11 L1,11 L1,12 L2,12 L2,13 L3,13 L3,12 L12,12 L12,11 L3,11 L3,10 L12,10 L12,9 L3,9 L3,8 L12,8 L12,7 L3,7 L3,6 L12,6 L12,5 L3,5 L3,4 L2,4 Z" id="Shape" sketch:type="MSShapeGroup"></path>
            <path d="M11,1 L11,0 L10,0 L10,1 L10,2 L11,2 L11,1 L11,1 Z M9,1 L9,0 L8,0 L8,1 L8,2 L9,2 L9,1 L9,1 Z M7,1 L7,0 L6,0 L6,1 L6,2 L7,2 L7,1 L7,1 Z M5,1 L5,0 L4,0 L4,1 L4,2 L5,2 L5,1 L5,1 Z M3,1 L3,0 L2,0 L2,1 L2,2 L3,2 L3,1 L3,1 Z M0,2 L0,3 L0,4 L0,13 L1,14 L12,14 L13,13 L13,4 L13,3 L13,2 L12,1 L12,2 L12,3 L11,3 L10,3 L9,3 L8,3 L7,3 L6,3 L5,3 L4,3 L3,3 L2,3 L1,3 L1,2 L1,1 L0,2 L0,2 Z M1,13 L1,4 L2,4 L3,4 L12,4 L12,13 L1,13 L1,13 Z" id="Shape" sketch:type="MSShapeGroup"></path>
        </g>
    </g>
</svg>