<?xml version="1.0" encoding="UTF-8" standalone="no"?>
<svg width="16px" height="16px" viewBox="0 0 16 16" version="1.1" xmlns="http://www.w3.org/2000/svg" xmlns:xlink="http://www.w3.org/1999/xlink" xmlns:sketch="http://www.bohemiancoding.com/sketch/ns">
    <!-- Generator: Sketch 3.3.3 (12072) - http://www.bohemiancoding.com/sketch -->
    <title>icon-attach</title>
    <desc>Created with Sketch.</desc>
    <defs></defs>
    <g id="Page-1" stroke="none" stroke-width="1" fill="none" fill-rule="evenodd" sketch:type="MSPage">
        <g id="icon-attach" sketch:type="MSLayerGroup" fill="#9E9E9E">
            <path d="M4,1 L0,9.33 L0,16 L8,16 L16,16 L16,9.33 L11.97,1 L10,1 L10,3 L11.33,3 L14.67,10 L10.67,10 L8,10 L5.33,10 L1.33,10 L4.67,3 L6,3 L6,1 L4,1 L4,1 Z M3,11 L4,11 L4,15 L3,15 L3,11 L3,11 Z M13,11 L13,15 L12,15 L12,11 L13,11 L13,11 Z M6,11 L7,11 L7,15 L6,15 L6,11 L6,11 Z M9,11 L10,11 L10,15 L9,15 L9,11 L9,11 Z M5,5 L8,8 L11.33,5 L9,5 L9,1 C9,0.33 8.67,0 8,0 C7.33,0 7,0.67 7,1.33 L7,5 L5,5 L5,5 Z" id="Shape" sketch:type="MSShapeGroup"></path>
        </g>
    </g>
</svg>