<?xml version="1.0" encoding="UTF-8" standalone="no"?>
<svg width="396px" height="58px" viewBox="0 0 396 58" version="1.1" xmlns="http://www.w3.org/2000/svg" xmlns:xlink="http://www.w3.org/1999/xlink" xmlns:sketch="http://www.bohemiancoding.com/sketch/ns">
    <!-- Generator: Sketch 3.3.3 (12072) - http://www.bohemiancoding.com/sketch -->
    <title>sprite</title>
    <desc>Created with Sketch.</desc>
    <defs></defs>
    <g id="Page-1" stroke="none" stroke-width="1" fill="none" fill-rule="evenodd" sketch:type="MSPage">
        <g id="sprite" sketch:type="MSLayerGroup">
            <g id="icon-out" transform="translate(380.000000, 0.000000)" sketch:type="MSShapeGroup">
                <ellipse id="Oval-21-Copy-2" fill="#7ED321" cx="8" cy="8" rx="8" ry="8"></ellipse>
                <path d="M4,8 L6.28542857,8 L6.28542857,12 L9.714,12 L9.714,8 L11.9997143,8 L7.99971429,4 L4,8 Z" id="Shape" fill="#FFFFFF"></path>
            </g>
            <g id="icon-in" transform="translate(360.000000, 0.000000)" sketch:type="MSShapeGroup">
                <ellipse id="Oval-21-Copy-2" fill="#0375C2" cx="8" cy="8" rx="8" ry="8"></ellipse>
                <path d="M4,8 L6.28542857,8 L6.28542857,12 L9.714,12 L9.714,8 L11.9997143,8 L7.99971429,4 L4,8 Z" id="Shape" fill="#FFFFFF" transform="translate(7.999857, 8.000000) rotate(-180.000000) translate(-7.999857, -8.000000) "></path>
            </g>
            <g id="icon-expand" transform="translate(340.000000, 0.000000)" fill="#231F20" sketch:type="MSShapeGroup">
                <path d="M10.5008485,6.60315152 L11.5723636,5.53163636 L12.6438788,4.46012121 L13.7153939,3.38860606 L13.7624242,3.34206061 L15.4690909,5.04872727 L15.6179394,0.146909091 L10.7156364,0.295757576 L12.4227879,2.00242424 L12.3757576,2.04945455 L11.3042424,3.1209697 L10.2327273,4.192 L9.16169697,5.26351515 L9.00024242,5.42545455 L10.3389091,6.76460606 L10.5008485,6.60315152 Z" id="Shape"></path>
                <path d="M5.62230303,4.192 L4.55078788,3.1209697 L3.47927273,2.04945455 L3.43272727,2.00242424 L5.13939394,0.295757576 L0.237090909,0.146909091 L0.385939394,5.04872727 L2.09309091,3.34206061 L2.14012121,3.38860606 L3.21115152,4.46012121 L4.28266667,5.53163636 L5.35369697,6.60315152 L5.51612121,6.76460606 L6.85527273,5.42545455 L6.69381818,5.26351515 L5.62230303,4.192 Z" id="Shape"></path>
                <path d="M13.7624242,12.3326061 L13.7153939,12.2860606 L12.6438788,11.2145455 L11.5723636,10.1430303 L10.5008485,9.0710303 L10.3389091,8.90957576 L9.00024242,10.2492121 L9.16169697,10.4106667 L10.2327273,11.4821818 L11.3042424,12.553697 L12.3757576,13.6252121 L12.4227879,13.6717576 L10.7156364,15.3789091 L15.6179394,15.5272727 L15.4690909,10.6259394 L13.7624242,12.3326061 Z" id="Shape"></path>
                <path d="M5.35369697,9.0710303 L4.28266667,10.1430303 L3.21115152,11.2145455 L2.14012121,12.2860606 L2.09309091,12.3330909 L0.385939394,10.6259394 L0.237090909,15.5272727 L5.13939394,15.3789091 L3.43224242,13.6717576 L3.47927273,13.6252121 L4.55078788,12.553697 L5.62230303,11.4821818 L6.69381818,10.4106667 L6.85527273,10.2492121 L5.51612121,8.90957576 L5.35369697,9.0710303 Z" id="Shape"></path>
            </g>
            <g id="icon-attach" transform="translate(320.000000, 0.000000)" fill="#000000" sketch:type="MSShapeGroup">
                <path d="M10.3529412,4 L10.3529412,11.6666667 C10.3529412,13.14 9.22980392,14.3333333 7.84313725,14.3333333 C6.45647059,14.3333333 5.33333333,13.14 5.33333333,11.6666667 L5.33333333,3.33333333 C5.33333333,2.41333333 6.03607843,1.66666667 6.90196078,1.66666667 C7.76784314,1.66666667 8.47058824,2.41333333 8.47058824,3.33333333 L8.47058824,10.3333333 C8.47058824,10.7 8.19137255,11 7.84313725,11 C7.49490196,11 7.21568627,10.7 7.21568627,10.3333333 L7.21568627,4 L6.2745098,4 L6.2745098,10.3333333 C6.2745098,11.2533333 6.9772549,12 7.84313725,12 C8.70901961,12 9.41176471,11.2533333 9.41176471,10.3333333 L9.41176471,3.33333333 C9.41176471,1.86 8.28862745,0.666666667 6.90196078,0.666666667 C5.51529412,0.666666667 4.39215686,1.86 4.39215686,3.33333333 L4.39215686,11.6666667 C4.39215686,13.6933333 5.93882353,15.3333333 7.84313725,15.3333333 C9.74745098,15.3333333 11.2941176,13.6933333 11.2941176,11.6666667 L11.2941176,4 L10.3529412,4 L10.3529412,4 Z" id="Shape" transform="translate(7.843137, 8.000000) rotate(-315.000000) translate(-7.843137, -8.000000) "></path>
            </g>
            <g id="icon-quote-hover" transform="translate(300.000000, 20.000000)" sketch:type="MSShapeGroup">
                <ellipse id="Oval-21-Copy-2" fill="#014E81" cx="8" cy="8" rx="8" ry="8"></ellipse>
                <path d="M4.01849883,11.2839115 C4.01849883,11.6785651 4.32175291,11.9982899 4.69616783,11.9982899 L6.89870396,11.9982899 C7.27313753,11.9982899 7.5764289,11.6785651 7.5764289,11.2839115 L7.5764289,8.42657494 C7.5764289,8.03190172 7.27313753,7.71223587 6.89870396,7.71223587 L5.81100233,7.71223587 C5.62286247,7.71223587 5.47216783,7.5515086 5.47216783,7.355086 C5.47216783,7.29079115 5.48736597,7.24615233 5.48736597,7.24615233 C5.73471329,6.38173956 6.35981352,5.68886486 7.16124942,5.38173956 L7.16460606,5.37816216 C7.40697436,5.26926781 7.57641026,5.01560688 7.57641026,4.72092383 C7.57641026,4.32628993 7.27311888,4.00660442 6.89868531,4.00660442 C6.80719814,4.00660442 6.72085781,4.02622113 6.64126807,4.06012776 L6.61061072,4.07270762 C5.09426573,4.69592138 4.01849883,6.24963145 4.01849883,8.06938575 L4.01849883,11.2839115 L4.01849883,11.2839115 Z M8.42358974,11.2839115 C8.42358974,11.6785651 8.72684382,11.9982899 9.10127739,11.9982899 L11.3038322,11.9982899 C11.6782471,11.9982899 11.9815012,11.6785651 11.9815012,11.2839115 L11.9815012,8.42657494 C11.9815012,8.03190172 11.6782471,7.71223587 11.3038322,7.71223587 L10.2160932,7.71223587 C10.027972,7.71223587 9.87727739,7.5515086 9.87727739,7.355086 C9.87727739,7.28900246 9.89243823,7.24615233 9.89243823,7.24615233 C10.1398415,6.38173956 10.7649231,5.68886486 11.5663776,5.38173956 L11.5697343,5.37816216 C11.8120653,5.26926781 11.9815012,5.01560688 11.9815012,4.72092383 C11.9815012,4.32628993 11.6782471,4.00660442 11.3038322,4.00660442 C11.212345,4.00660442 11.1259674,4.02622113 11.0463963,4.06012776 L11.0157389,4.07270762 C9.49935664,4.69592138 8.42358974,6.24963145 8.42358974,8.06938575 L8.42358974,11.2839115 L8.42358974,11.2839115 Z" id="Shape" fill="#FFFFFF"></path>
            </g>
            <g id="icon-quote" transform="translate(300.000000, 0.000000)" sketch:type="MSShapeGroup">
                <ellipse id="Oval-21-Copy-2" fill="#0375C2" cx="8" cy="8" rx="8" ry="8"></ellipse>
                <path d="M4.01849883,11.2839115 C4.01849883,11.6785651 4.32175291,11.9982899 4.69616783,11.9982899 L6.89870396,11.9982899 C7.27313753,11.9982899 7.5764289,11.6785651 7.5764289,11.2839115 L7.5764289,8.42657494 C7.5764289,8.03190172 7.27313753,7.71223587 6.89870396,7.71223587 L5.81100233,7.71223587 C5.62286247,7.71223587 5.47216783,7.5515086 5.47216783,7.355086 C5.47216783,7.29079115 5.48736597,7.24615233 5.48736597,7.24615233 C5.73471329,6.38173956 6.35981352,5.68886486 7.16124942,5.38173956 L7.16460606,5.37816216 C7.40697436,5.26926781 7.57641026,5.01560688 7.57641026,4.72092383 C7.57641026,4.32628993 7.27311888,4.00660442 6.89868531,4.00660442 C6.80719814,4.00660442 6.72085781,4.02622113 6.64126807,4.06012776 L6.61061072,4.07270762 C5.09426573,4.69592138 4.01849883,6.24963145 4.01849883,8.06938575 L4.01849883,11.2839115 L4.01849883,11.2839115 Z M8.42358974,11.2839115 C8.42358974,11.6785651 8.72684382,11.9982899 9.10127739,11.9982899 L11.3038322,11.9982899 C11.6782471,11.9982899 11.9815012,11.6785651 11.9815012,11.2839115 L11.9815012,8.42657494 C11.9815012,8.03190172 11.6782471,7.71223587 11.3038322,7.71223587 L10.2160932,7.71223587 C10.027972,7.71223587 9.87727739,7.5515086 9.87727739,7.355086 C9.87727739,7.28900246 9.89243823,7.24615233 9.89243823,7.24615233 C10.1398415,6.38173956 10.7649231,5.68886486 11.5663776,5.38173956 L11.5697343,5.37816216 C11.8120653,5.26926781 11.9815012,5.01560688 11.9815012,4.72092383 C11.9815012,4.32628993 11.6782471,4.00660442 11.3038322,4.00660442 C11.212345,4.00660442 11.1259674,4.02622113 11.0463963,4.06012776 L11.0157389,4.07270762 C9.49935664,4.69592138 8.42358974,6.24963145 8.42358974,8.06938575 L8.42358974,11.2839115 L8.42358974,11.2839115 Z" id="Shape" fill="#FFFFFF"></path>
            </g>
            <g id="icon-present" transform="translate(280.000000, 1.000000)" sketch:type="MSShapeGroup">
                <path d="M0.666666667,5.47826087 L0.666666667,7.43478261 L0.666666667,8.73913043 L0.666666667,13.3043478 C0.666666667,14.0217391 1.2636,14.6086957 2,14.6086957 L8,14.6086957 L14,14.6086957 C14.7366667,14.6086957 15.3333333,14.0217391 15.3333333,13.3043478 L15.3333333,8.73913043 L15.3333333,7.43478261 L15.3333333,5.47826087 L0.666666667,5.47826087 L0.666666667,5.47826087 Z" id="Shape" fill="#F39C12"></path>
                <path d="M0.666666667,4.82608696 L0.666666667,6.7826087 L0.666666667,8.08695652 L0.666666667,12.6521739 C0.666666667,13.3695652 1.2636,13.9565217 2,13.9565217 L8,13.9565217 L14,13.9565217 C14.7366667,13.9565217 15.3333333,13.3695652 15.3333333,12.6521739 L15.3333333,8.08695652 L15.3333333,6.7826087 L15.3333333,4.82608696 L0.666666667,4.82608696 L0.666666667,4.82608696 Z" id="Shape" fill="#F1C40F"></path>
                <path d="M1.33333333,3.52173913 C0.596933333,3.52173913 0,4.10869565 0,4.82608696 L0,6.13043478 L16,6.13043478 L16,4.82608696 C16,4.10869565 15.4033333,3.52173913 14.6666667,3.52173913 L13.3333333,3.52173913 L8.66666667,3.52173913 L7.33333333,3.52173913 L2.66666667,3.52173913 L1.33333333,3.52173913 L1.33333333,3.52173913 Z" id="Shape" fill="#F1C40F"></path>
                <rect id="Rectangle-path" fill="#E74C3C" x="6" y="2.86956522" width="4" height="11.7391304"></rect>
                <path d="M5.25653333,0.260869565 C4.5908,0.195652174 3.941,0.52173913 3.5846,1.04347826 C3.0662,1.82608696 3.376,2.80434783 4.27393333,3.26086957 C4.56266667,3.45652174 4.87193333,3.52173913 5.1832,3.52173913 L5.3372,3.52173913 L7.53733333,3.52173913 L8.46133333,3.52173913 L10.6606667,3.52173913 L10.8146667,3.52173913 C11.126,3.52173913 11.4426667,3.45652174 11.7313333,3.26086957 C12.6293333,2.80434783 12.932,1.82608696 12.4133333,1.04347826 C11.8953333,0.260869565 10.752,9.34530231e-14 9.854,0.456521739 C9.56533333,0.586956522 9.33866667,0.782608696 9.18,1.04347826 L9.16533333,1.04347826 C9.144,1.10869565 9.12533333,1.10869565 9.10666667,1.17391304 L7.99933333,2.80434783 L6.892,1.17391304 C6.87333333,1.10869565 6.85466667,1.10869565 6.83333333,1.04347826 L6.81866667,1.04347826 C6.6596,0.782608696 6.43993333,0.586956522 6.15113333,0.456521739 C5.87053333,0.326086957 5.55913333,0.260869565 5.25653333,0.260869565 L5.25653333,0.260869565 Z M5.14653333,1.04347826 C5.32686667,1.04347826 5.51346667,1.10869565 5.68186667,1.17391304 C5.73833333,1.17391304 5.78913333,1.23913043 5.8358,1.23913043 C5.86866667,1.30434783 5.89593333,1.30434783 5.9238,1.36956522 L5.9458,1.36956522 C5.9608,1.36956522 5.97646667,1.43478261 5.9898,1.43478261 L6.0118,1.43478261 L6.01913333,1.43478261 C6.0298,1.5 6.04646667,1.5 6.0558,1.5 L6.83333333,2.67391304 L5.27853333,2.67391304 L5.19053333,2.67391304 L5.15386667,2.67391304 L5.08053333,2.67391304 L5.04386667,2.67391304 C5.0012,2.67391304 4.96113333,2.67391304 4.9192,2.60869565 C4.8596,2.60869565 4.79973333,2.60869565 4.7432,2.54347826 C4.631,2.54347826 4.53073333,2.41304348 4.4572,2.34782609 C4.23673333,2.08695652 4.20413333,1.76086957 4.39853333,1.43478261 C4.56053333,1.23913043 4.84593333,1.04347826 5.14653333,1.04347826 L5.14653333,1.04347826 Z M10.8586667,1.04347826 C11.1593333,1.04347826 11.4446667,1.23913043 11.6066667,1.43478261 C11.8013333,1.76086957 11.7613333,2.08695652 11.5406667,2.34782609 C11.4673333,2.41304348 11.3746667,2.54347826 11.262,2.54347826 C11.206,2.60869565 11.146,2.60869565 11.086,2.60869565 C11.0446667,2.67391304 10.9966667,2.67391304 10.954,2.67391304 L10.9173333,2.67391304 L10.844,2.67391304 L10.8073333,2.67391304 L10.7193333,2.67391304 L9.16533333,2.67391304 L9.942,1.5 C9.95133333,1.5 9.968,1.5 9.97866667,1.43478261 L9.986,1.43478261 C9.988,1.43478261 9.98466667,1.43478261 9.986,1.43478261 L10.008,1.43478261 C10.0213333,1.43478261 10.0373333,1.36956522 10.052,1.36956522 L10.074,1.36956522 C10.102,1.30434783 10.1366667,1.30434783 10.1693333,1.23913043 C10.2166667,1.23913043 10.2673333,1.17391304 10.3233333,1.17391304 C10.492,1.10869565 10.6786667,1.04347826 10.8586667,1.04347826 L10.8586667,1.04347826 Z" id="Shape" fill="#C0392B"></path>
                <rect id="Rectangle-path" fill="#F39C12" x="0.666666667" y="6.13043478" width="14.6666667" height="0.652173913"></rect>
                <rect id="Rectangle-path" fill="#C0392B" x="6" y="6.13043478" width="4" height="0.652173913"></rect>
                <rect id="Rectangle-path" fill="#C0392B" x="6" y="13.9565217" width="4" height="0.652173913"></rect>
            </g>
            <g id="icon-comment-hover" transform="translate(260.000000, 20.000000)" sketch:type="MSShapeGroup">
                <ellipse id="Oval-21" fill="#014E81" cx="8" cy="8" rx="8" ry="8"></ellipse>
                <path d="M3,7.67282772 C3,9.32801652 3.93125,10.7355311 5.51875,11.1885937 C5.50625,11.2429612 5.5,11.2912879 5.5,11.3456554 L5.5,12.6383941 C5.5,13.0733343 5.81875,13.1035384 6.14375,12.7954558 L8,11.2490021 L9.1375,11.2490021 C11.26875,11.2490021 13,9.60589494 13,7.57617436 C13,5.54645378 11.26875,4 9.1375,4 L6.8625,4 C4.73125,4 3,5.64310714 3,7.67282772 L3,7.67282772 Z M5.5,6.41633402 L10.5,6.41633402 L10.5,7.02041753 L5.5,7.02041753 L5.5,6.41633402 L5.5,6.41633402 Z M5.5,7.62450104 L10.5,7.62450104 L10.5,8.22858454 L5.5,8.22858454 L5.5,7.62450104 L5.5,7.62450104 Z M5.5,8.83266805 L8.625,8.83266805 L8.625,9.43675155 L5.5,9.43675155 L5.5,8.83266805 L5.5,8.83266805 Z" id="Shape" fill="#FFFFFF"></path>
            </g>
            <g id="icon-comment" transform="translate(260.000000, 0.000000)" sketch:type="MSShapeGroup">
                <ellipse id="Oval-21" fill="#0375C2" cx="8" cy="8" rx="8" ry="8"></ellipse>
                <path d="M3,7.67282772 C3,9.32801652 3.93125,10.7355311 5.51875,11.1885937 C5.50625,11.2429612 5.5,11.2912879 5.5,11.3456554 L5.5,12.6383941 C5.5,13.0733343 5.81875,13.1035384 6.14375,12.7954558 L8,11.2490021 L9.1375,11.2490021 C11.26875,11.2490021 13,9.60589494 13,7.57617436 C13,5.54645378 11.26875,4 9.1375,4 L6.8625,4 C4.73125,4 3,5.64310714 3,7.67282772 L3,7.67282772 Z M5.5,6.41633402 L10.5,6.41633402 L10.5,7.02041753 L5.5,7.02041753 L5.5,6.41633402 L5.5,6.41633402 Z M5.5,7.62450104 L10.5,7.62450104 L10.5,8.22858454 L5.5,8.22858454 L5.5,7.62450104 L5.5,7.62450104 Z M5.5,8.83266805 L8.625,8.83266805 L8.625,9.43675155 L5.5,9.43675155 L5.5,8.83266805 L5.5,8.83266805 Z" id="Shape" fill="#FFFFFF"></path>
            </g>
            <g id="icon-clear-hover" transform="translate(240.000000, 20.000000)" sketch:type="MSShapeGroup">
                <ellipse id="Oval-21" fill="#014E81" cx="8" cy="8" rx="8" ry="8"></ellipse>
                <path d="M4.58730159,11.8253968 C4.58730159,12.4743651 5.11293651,13 5.76190476,13 L10.4603175,13 C11.1092857,13 11.6349206,12.4743651 11.6349206,11.8253968 L11.6349206,4.77777778 L4.58730159,4.77777778 L4.58730159,11.8253968 L4.58730159,11.8253968 Z M12.2222222,3.01587302 L10.1666667,3.01587302 L9.57936508,2.42857143 L6.64285714,2.42857143 L6.05555556,3.01587302 L4,3.01587302 L4,4.19047619 L12.2222222,4.19047619 L12.2222222,3.01587302 L12.2222222,3.01587302 Z" id="Shape" fill="#FFFFFF"></path>
            </g>
            <g id="icon-clear" transform="translate(240.000000, 0.000000)" sketch:type="MSShapeGroup">
                <ellipse id="Oval-21" fill="#D0021B" cx="8" cy="8" rx="8" ry="8"></ellipse>
                <path d="M4.58730159,11.8253968 C4.58730159,12.4743651 5.11293651,13 5.76190476,13 L10.4603175,13 C11.1092857,13 11.6349206,12.4743651 11.6349206,11.8253968 L11.6349206,4.77777778 L4.58730159,4.77777778 L4.58730159,11.8253968 L4.58730159,11.8253968 Z M12.2222222,3.01587302 L10.1666667,3.01587302 L9.57936508,2.42857143 L6.64285714,2.42857143 L6.05555556,3.01587302 L4,3.01587302 L4,4.19047619 L12.2222222,4.19047619 L12.2222222,3.01587302 L12.2222222,3.01587302 Z" id="Shape" fill="#FFFFFF"></path>
            </g>
            <g id="icon-accept-hover" transform="translate(220.000000, 20.000000)" sketch:type="MSShapeGroup">
                <circle id="Oval-21" fill="#014E81" cx="7.96875" cy="7.96875" r="7.96875"></circle>
                <path d="M3.34299981,7.68536449 C3.12786468,7.91244613 3.13981663,8.36660941 3.35495176,8.58771522 L5.97840515,11.2469608 C6.19951626,11.4740424 6.64173847,11.4800182 6.86882555,11.2648883 L7.28714386,10.8645075 L8.18951621,9.99801173 L12.5758825,5.81492886 C12.8029696,5.59979888 12.8089455,5.15758726 12.5878344,4.93648145 L12.0798765,4.41658401 C11.8587654,4.1954782 11.4165432,4.1954782 11.1954321,4.41060818 L6.90468141,8.69528021 C6.6835703,8.91638602 6.24134809,8.91041019 6.02621296,8.68930438 L4.59795473,7.2491287 C4.3828196,7.02204706 3.95254934,7.02802289 3.73741421,7.26108037 L3.34299981,7.68536449 L3.34299981,7.68536449 Z" id="Shape-Copy" fill="#FFFFFF"></path>
            </g>
            <g id="icon-accept" transform="translate(220.000000, 0.000000)" sketch:type="MSShapeGroup">
                <circle id="Oval-21" fill="#73CE29" cx="7.96875" cy="7.96875" r="7.96875"></circle>
                <path d="M3.34299981,7.68536449 C3.12786468,7.91244613 3.13981663,8.36660941 3.35495176,8.58771522 L5.97840515,11.2469608 C6.19951626,11.4740424 6.64173847,11.4800182 6.86882555,11.2648883 L7.28714386,10.8645075 L8.18951621,9.99801173 L12.5758825,5.81492886 C12.8029696,5.59979888 12.8089455,5.15758726 12.5878344,4.93648145 L12.0798765,4.41658401 C11.8587654,4.1954782 11.4165432,4.1954782 11.1954321,4.41060818 L6.90468141,8.69528021 C6.6835703,8.91638602 6.24134809,8.91041019 6.02621296,8.68930438 L4.59795473,7.2491287 C4.3828196,7.02204706 3.95254934,7.02802289 3.73741421,7.26108037 L3.34299981,7.68536449 L3.34299981,7.68536449 Z" id="Shape-Copy" fill="#FFFFFF"></path>
            </g>
            <g id="icon-prin-hover" transform="translate(200.000000, 20.000000)" sketch:type="MSShapeGroup">
                <ellipse id="Oval-21" fill="#014E81" cx="8" cy="8" rx="8" ry="8"></ellipse>
                <path d="M11.5,6.5 L4.5,6.5 C3.65,6.5 3,7.15 3,8 L3,11 L5,11 L5,13 L11,13 L11,11 L13,11 L13,8 C13,7.15 12.35,6.5 11.5,6.5 L11.5,6.5 L11.5,6.5 Z M10,12 L6,12 L6,9.5 L10,9.5 L10,12 L10,12 Z M11.5,8.5 C11.2,8.5 11,8.3 11,8 C11,7.7 11.2,7.5 11.5,7.5 C11.8,7.5 12,7.7 12,8 C12,8.3 11.8,8.5 11.5,8.5 L11.5,8.5 L11.5,8.5 Z M11,4 L5,4 L5,6 L11,6 L11,4 L11,4 Z" id="Shape" fill="#FFFFFF"></path>
            </g>
            <g id="icon-print" transform="translate(200.000000, 0.000000)" sketch:type="MSShapeGroup">
                <ellipse id="Oval-21" fill="#0375C2" cx="8" cy="8" rx="8" ry="8"></ellipse>
                <path d="M11.5,6.5 L4.5,6.5 C3.65,6.5 3,7.15 3,8 L3,11 L5,11 L5,13 L11,13 L11,11 L13,11 L13,8 C13,7.15 12.35,6.5 11.5,6.5 L11.5,6.5 L11.5,6.5 Z M10,12 L6,12 L6,9.5 L10,9.5 L10,12 L10,12 Z M11.5,8.5 C11.2,8.5 11,8.3 11,8 C11,7.7 11.2,7.5 11.5,7.5 C11.8,7.5 12,7.7 12,8 C12,8.3 11.8,8.5 11.5,8.5 L11.5,8.5 L11.5,8.5 Z M11,4 L5,4 L5,6 L11,6 L11,4 L11,4 Z" id="Shape" fill="#FFFFFF"></path>
            </g>
            <g id="icon-edit-invert" transform="translate(180.000000, 41.000000)" sketch:type="MSShapeGroup">
                <path d="M7.99855519,16.1294807 C12.3843458,16.1294807 15.9397317,12.5740949 15.9397317,8.18830423 C15.9397317,3.80251357 12.3843458,0.247127757 7.99855519,0.247127757 C3.61276453,0.247127757 0.0573787169,3.80251357 0.0573787169,8.18830423 C0.0573787169,12.5740949 3.61276453,16.1294807 7.99855519,16.1294807 Z" id="Oval-21" fill="#FFFFFF"></path>
                <path d="M4.02941176,10.3235294 L5.61764706,11.9117647 L11.1764706,6.35294118 L9.58823529,4.76470588 L4.02941176,10.3235294 L4.02941176,10.3235294 Z M11.9705882,5.55882353 L12.7647059,4.76470588 L12.7647059,3.97058824 L11.9705882,3.17647059 L11.1764706,3.17647059 L10.3823529,3.97058824 L11.9705882,5.55882353 L11.9705882,5.55882353 Z M4.02941176,11.1176471 L3.23529412,12.7058824 L4.82352941,11.9117647 L4.02941176,11.1176471 L4.02941176,11.1176471 Z" id="Shape" fill="#014E81"></path>
            </g>
            <g id="icon-edit-hover" transform="translate(180.000000, 20.000000)" sketch:type="MSShapeGroup">
                <circle id="Oval-21" fill="#014E81" cx="7.99855519" cy="8.18830423" r="7.94117647"></circle>
                <path d="M4.02941176,10.3235294 L5.61764706,11.9117647 L11.1764706,6.35294118 L9.58823529,4.76470588 L4.02941176,10.3235294 L4.02941176,10.3235294 Z M11.9705882,5.55882353 L12.7647059,4.76470588 L12.7647059,3.97058824 L11.9705882,3.17647059 L11.1764706,3.17647059 L10.3823529,3.97058824 L11.9705882,5.55882353 L11.9705882,5.55882353 Z M4.02941176,11.1176471 L3.23529412,12.7058824 L4.82352941,11.9117647 L4.02941176,11.1176471 L4.02941176,11.1176471 Z" id="Shape" fill="#FFFFFF"></path>
            </g>
            <g id="icon-edit" transform="translate(180.000000, 0.000000)" sketch:type="MSShapeGroup">
                <circle id="Oval-21" fill-opacity="0.512766078" fill="#8F8F8F" cx="7.99855519" cy="8.18830423" r="7.94117647"></circle>
                <path d="M4.02941176,10.3235294 L5.61764706,11.9117647 L11.1764706,6.35294118 L9.58823529,4.76470588 L4.02941176,10.3235294 L4.02941176,10.3235294 Z M11.9705882,5.55882353 L12.7647059,4.76470588 L12.7647059,3.97058824 L11.9705882,3.17647059 L11.1764706,3.17647059 L10.3823529,3.97058824 L11.9705882,5.55882353 L11.9705882,5.55882353 Z M4.02941176,11.1176471 L3.23529412,12.7058824 L4.82352941,11.9117647 L4.02941176,11.1176471 L4.02941176,11.1176471 Z" id="Shape" fill="#FFFFFF"></path>
            </g>
            <g id="icon-delete-invert" transform="translate(160.000000, 40.000000)" sketch:type="MSShapeGroup">
                <ellipse id="Oval-21" fill="#FFFFFF" cx="8" cy="8" rx="8" ry="8"></ellipse>
                <path d="M11.7347273,5.09961366 C11.8485455,5.21343185 11.8485455,5.3999773 11.7347273,5.51379548 L9.45254545,7.79379548 C9.33872727,7.90725003 9.33872727,8.09415912 9.45254545,8.20834094 L11.7336364,10.4890682 C11.8474545,10.6028864 11.8474545,10.7894318 11.7336364,10.9036137 L10.9027273,11.7316137 C10.7885455,11.8450682 10.6016364,11.8450682 10.4874545,11.7316137 L8.20709091,9.45125003 C8.09327273,9.33743185 7.906,9.33743185 7.79218182,9.45125003 L5.51,11.7301591 C5.39618182,11.8439773 5.20890909,11.8439773 5.09509091,11.7301591 L4.26527273,10.9010682 C4.15145455,10.78725 4.15145455,10.6007046 4.26527273,10.4865228 L6.54818182,8.20688639 C6.662,8.09343185 6.662,7.90652275 6.54818182,7.79234094 L4.26709091,5.51125003 C4.15290909,5.39743185 4.15290909,5.21052275 4.26709091,5.09670457 L5.09763636,4.26834094 C5.21218182,4.15488639 5.39872727,4.15488639 5.51290909,4.26870457 L7.79290909,6.54870457 C7.90709091,6.66288639 8.094,6.66288639 8.20781818,6.54906821 L10.49,4.27015912 C10.6034545,4.15670457 10.7903636,4.15670457 10.9049091,4.27015912 L11.7347273,5.09961366 L11.7347273,5.09961366 Z" id="Shape" fill="#D0011B"></path>
            </g>
            <g id="icon-delete-hover" transform="translate(160.000000, 20.000000)" sketch:type="MSShapeGroup">
                <ellipse id="Oval-21" fill="#014E81" cx="8" cy="8" rx="8" ry="8"></ellipse>
                <path d="M11.7347273,5.09961366 C11.8485455,5.21343185 11.8485455,5.3999773 11.7347273,5.51379548 L9.45254545,7.79379548 C9.33872727,7.90725003 9.33872727,8.09415912 9.45254545,8.20834094 L11.7336364,10.4890682 C11.8474545,10.6028864 11.8474545,10.7894318 11.7336364,10.9036137 L10.9027273,11.7316137 C10.7885455,11.8450682 10.6016364,11.8450682 10.4874545,11.7316137 L8.20709091,9.45125003 C8.09327273,9.33743185 7.906,9.33743185 7.79218182,9.45125003 L5.51,11.7301591 C5.39618182,11.8439773 5.20890909,11.8439773 5.09509091,11.7301591 L4.26527273,10.9010682 C4.15145455,10.78725 4.15145455,10.6007046 4.26527273,10.4865228 L6.54818182,8.20688639 C6.662,8.09343185 6.662,7.90652275 6.54818182,7.79234094 L4.26709091,5.51125003 C4.15290909,5.39743185 4.15290909,5.21052275 4.26709091,5.09670457 L5.09763636,4.26834094 C5.21218182,4.15488639 5.39872727,4.15488639 5.51290909,4.26870457 L7.79290909,6.54870457 C7.90709091,6.66288639 8.094,6.66288639 8.20781818,6.54906821 L10.49,4.27015912 C10.6034545,4.15670457 10.7903636,4.15670457 10.9049091,4.27015912 L11.7347273,5.09961366 L11.7347273,5.09961366 Z" id="Shape" fill="#FFFFFF"></path>
            </g>
            <g id="icon-delete" transform="translate(160.000000, 0.000000)" sketch:type="MSShapeGroup">
                <ellipse id="Oval-21" fill="#D0021B" cx="8" cy="8" rx="8" ry="8"></ellipse>
                <path d="M11.7347273,5.09961366 C11.8485455,5.21343185 11.8485455,5.3999773 11.7347273,5.51379548 L9.45254545,7.79379548 C9.33872727,7.90725003 9.33872727,8.09415912 9.45254545,8.20834094 L11.7336364,10.4890682 C11.8474545,10.6028864 11.8474545,10.7894318 11.7336364,10.9036137 L10.9027273,11.7316137 C10.7885455,11.8450682 10.6016364,11.8450682 10.4874545,11.7316137 L8.20709091,9.45125003 C8.09327273,9.33743185 7.906,9.33743185 7.79218182,9.45125003 L5.51,11.7301591 C5.39618182,11.8439773 5.20890909,11.8439773 5.09509091,11.7301591 L4.26527273,10.9010682 C4.15145455,10.78725 4.15145455,10.6007046 4.26527273,10.4865228 L6.54818182,8.20688639 C6.662,8.09343185 6.662,7.90652275 6.54818182,7.79234094 L4.26709091,5.51125003 C4.15290909,5.39743185 4.15290909,5.21052275 4.26709091,5.09670457 L5.09763636,4.26834094 C5.21218182,4.15488639 5.39872727,4.15488639 5.51290909,4.26870457 L7.79290909,6.54870457 C7.90709091,6.66288639 8.094,6.66288639 8.20781818,6.54906821 L10.49,4.27015912 C10.6034545,4.15670457 10.7903636,4.15670457 10.9049091,4.27015912 L11.7347273,5.09961366 L11.7347273,5.09961366 Z" id="Shape" fill="#FFFFFF"></path>
            </g>
            <g id="icon-download-hover" transform="translate(140.000000, 20.000000)" sketch:type="MSShapeGroup">
                <ellipse id="Oval-21" fill="#014E81" cx="8" cy="8" rx="8" ry="8"></ellipse>
                <path d="M12,5.97222222 L9.71428571,5.97222222 L9.71428571,2.30555556 L6.28571429,2.30555556 L6.28571429,5.97222222 L4,5.97222222 L8,10.25 L12,5.97222222 L12,5.97222222 Z M4,11.4722222 L4,12.6944444 L12,12.6944444 L12,11.4722222 L4,11.4722222 L4,11.4722222 Z" id="Shape" fill="#FFFFFF"></path>
            </g>
            <g id="icon-download" transform="translate(140.000000, 0.000000)" sketch:type="MSShapeGroup">
                <ellipse id="Oval-21" fill="#0375C2" cx="8" cy="8" rx="8" ry="8"></ellipse>
                <path d="M12,5.97222222 L9.71428571,5.97222222 L9.71428571,2.30555556 L6.28571429,2.30555556 L6.28571429,5.97222222 L4,5.97222222 L8,10.25 L12,5.97222222 L12,5.97222222 Z M4,11.4722222 L4,12.6944444 L12,12.6944444 L12,11.4722222 L4,11.4722222 L4,11.4722222 Z" id="Shape" fill="#FFFFFF"></path>
            </g>
            <g id="icon-add-invert" transform="translate(120.000000, 40.000000)" sketch:type="MSShapeGroup">
                <ellipse id="Oval-21" fill="#FFFFFF" cx="8" cy="8" rx="8" ry="8"></ellipse>
                <path d="M8.8,12 L7.2,12 L7.2,8.8 L4,8.8 L4,7.2 L7.2,7.2 L7.2,4 L8.8,4 L8.8,7.2 L12,7.2 L12,8.8 L8.8,8.8 L8.8,12 Z" id="Path" fill="#014E81"></path>
            </g>
            <g id="icon-add-hover" transform="translate(120.000000, 20.000000)" sketch:type="MSShapeGroup">
                <ellipse id="Oval-21" fill="#014E81" cx="8" cy="8" rx="8" ry="8"></ellipse>
                <path d="M8.8,12 L7.2,12 L7.2,8.8 L4,8.8 L4,7.2 L7.2,7.2 L7.2,4 L8.8,4 L8.8,7.2 L12,7.2 L12,8.8 L8.8,8.8 L8.8,12 Z" id="Path" fill="#FFFFFF"></path>
            </g>
            <g id="icon-add" transform="translate(120.000000, 0.000000)" sketch:type="MSShapeGroup">
                <ellipse id="Oval-21" fill="#0375C2" cx="8" cy="8" rx="8" ry="8"></ellipse>
                <path d="M8.8,12 L7.2,12 L7.2,8.8 L4,8.8 L4,7.2 L7.2,7.2 L7.2,4 L8.8,4 L8.8,7.2 L12,7.2 L12,8.8 L8.8,8.8 L8.8,12 Z" id="Path" fill="#FFFFFF"></path>
            </g>
            <g id="icon-adress-hover" transform="translate(100.000000, 20.000000)" sketch:type="MSShapeGroup">
                <ellipse id="Oval-21" fill="#014E81" cx="8" cy="8" rx="8" ry="8"></ellipse>
                <path d="M8.00611765,8.4472 C7.00988235,8.4472 6.20141176,7.68644 6.20141176,6.74792 C6.20141176,5.80852 7.00988235,5.0482 8.00611765,5.0482 C9.00235294,5.0482 9.81082353,5.80896 9.81082353,6.74792 C9.81082353,7.686 9.00235294,8.4472 8.00611765,8.4472 M8.00611765,3 C5.8,3 4.01176471,4.68388 4.01176471,6.76156 C4.01176471,8.72396 5.82070588,11.25528 7.02870588,12.48772 C7.48,12.94752 8.00564706,13.56748 8.00564706,13.56748 C8.00564706,13.56748 8.57035294,12.944 9.05458824,12.47056 C10.2616471,11.2896 12,8.91844 12,6.76156 C12,4.68388 10.2117647,3 8.00611765,3" id="Shape" fill="#FFFFFF"></path>
            </g>
            <g id="icon-adress" transform="translate(100.000000, 0.000000)" sketch:type="MSShapeGroup">
                <ellipse id="Oval-21" fill="#0375C2" cx="8" cy="8" rx="8" ry="8"></ellipse>
                <path d="M8.00611765,8.4472 C7.00988235,8.4472 6.20141176,7.68644 6.20141176,6.74792 C6.20141176,5.80852 7.00988235,5.0482 8.00611765,5.0482 C9.00235294,5.0482 9.81082353,5.80896 9.81082353,6.74792 C9.81082353,7.686 9.00235294,8.4472 8.00611765,8.4472 M8.00611765,3 C5.8,3 4.01176471,4.68388 4.01176471,6.76156 C4.01176471,8.72396 5.82070588,11.25528 7.02870588,12.48772 C7.48,12.94752 8.00564706,13.56748 8.00564706,13.56748 C8.00564706,13.56748 8.57035294,12.944 9.05458824,12.47056 C10.2616471,11.2896 12,8.91844 12,6.76156 C12,4.68388 10.2117647,3 8.00611765,3" id="Shape" fill="#FFFFFF"></path>
            </g>
            <g id="icon-nofollow" transform="translate(80.000000, 0.000000)" sketch:type="MSShapeGroup">
                <ellipse id="Oval-21-Copy-2" fill="#0375C2" cx="8" cy="8" rx="8" ry="8"></ellipse>
                <path d="M8,2.13333333 L9.62590476,6.49751105 L13.8666667,6.49751105 L10.6232381,9.62530821 L11.6289524,13.8666667 L8,11.3365899 L4.37104762,13.8666667 L5.3767619,9.62530821 L2.13333333,6.49751105 L6.37409524,6.49751105 L8,2.13333333 Z" id="Shape" fill="#FFFFFF"></path>
            </g>
            <g id="icon-follow-hover" transform="translate(60.000000, 20.000000)" sketch:type="MSShapeGroup">
                <ellipse id="Oval-21-Copy-2" fill="#014E81" cx="8" cy="8" rx="8" ry="8"></ellipse>
                <path d="M8,2.13333333 L9.62590476,6.49751105 L13.8666667,6.49751105 L10.6232381,9.62530821 L11.6289524,13.8666667 L8,11.3365899 L4.37104762,13.8666667 L5.3767619,9.62530821 L2.13333333,6.49751105 L6.37409524,6.49751105 L8,2.13333333 Z" id="Shape" fill="#FFFFFF"></path>
            </g>
            <g id="icon-follow" transform="translate(60.000000, 0.000000)" sketch:type="MSShapeGroup">
                <ellipse id="Oval-21-Copy-2" fill="#D8D8D8" cx="8" cy="8" rx="8" ry="8"></ellipse>
                <path d="M8,2.13333333 L9.62590476,6.49751105 L13.8666667,6.49751105 L10.6232381,9.62530821 L11.6289524,13.8666667 L8,11.3365899 L4.37104762,13.8666667 L5.3767619,9.62530821 L2.13333333,6.49751105 L6.37409524,6.49751105 L8,2.13333333 Z" id="Shape" fill="#FFFFFF"></path>
            </g>
            <g id="icon-user-hover" transform="translate(40.000000, 20.000000)" sketch:type="MSShapeGroup">
                <ellipse id="Oval-21" fill="#014E81" cx="8" cy="8" rx="8" ry="8"></ellipse>
                <circle id="Oval" fill="#FFFFFF" cx="8" cy="5.5" r="2.5"></circle>
                <path d="M8,9.25 C4.1875,9.25 3,11.75 3,11.75 L3,13 L13,13 L13,11.75 C13,11.75 11.8125,9.25 8,9.25 L8,9.25 Z" id="Shape" fill="#FFFFFF"></path>
            </g>
            <g id="icon-user" transform="translate(40.000000, 0.000000)" sketch:type="MSShapeGroup">
                <ellipse id="Oval-21" fill="#0375C2" cx="8" cy="8" rx="8" ry="8"></ellipse>
                <circle id="Oval" fill="#FFFFFF" cx="8" cy="5.5" r="2.5"></circle>
                <path d="M8,9.25 C4.1875,9.25 3,11.75 3,11.75 L3,13 L13,13 L13,11.75 C13,11.75 11.8125,9.25 8,9.25 L8,9.25 Z" id="Shape" fill="#FFFFFF"></path>
            </g>
            <g id="icon-email-hover" transform="translate(20.000000, 20.000000)" sketch:type="MSShapeGroup">
                <ellipse id="Oval-21-Copy" fill="#014E81" cx="7.84313725" cy="7.84313725" rx="7.84313725" ry="7.84313725"></ellipse>
                <path d="M2,11.0895407 L2,4.44314074 L6.14257143,7.80474074 L2,11.0895407 Z M14,11.0895407 L9.85828571,7.80474074 L14,4.44154074 L14,11.0895407 Z M8,8.54074074 L2.27257143,3.95914074 C2.42771429,3.82474074 2.63514286,3.74074074 2.86314286,3.74074074 L13.1368571,3.74074074 C13.3665714,3.74074074 13.5748571,3.82314074 13.7291429,3.95754074 L8,8.54074074 Z M9.48457143,8.12874074 L13.7274286,11.5223407 C13.5731429,11.6575407 13.3657143,11.7407407 13.1368571,11.7407407 L2.86314286,11.7407407 C2.63342857,11.7407407 2.42514286,11.6583407 2.27085714,11.5239407 L6.51542857,8.12874074 L8,9.34074074 L9.48457143,8.12874074 Z" id="Fill-1-Copy" fill="#FFFFFF"></path>
            </g>
            <g id="icon-email" transform="translate(20.000000, 0.000000)" sketch:type="MSShapeGroup">
                <ellipse id="Oval-21-Copy" fill="#F5A623" cx="7.84313725" cy="7.84313725" rx="7.84313725" ry="7.84313725"></ellipse>
                <path d="M2,11.4228741 L2,4.77647407 L6.14257143,8.13807407 L2,11.4228741 Z M14,11.4228741 L9.85828571,8.13807407 L14,4.77487407 L14,11.4228741 Z M8,8.87407407 L2.27257143,4.29247407 C2.42771429,4.15807407 2.63514286,4.07407407 2.86314286,4.07407407 L13.1368571,4.07407407 C13.3665714,4.07407407 13.5748571,4.15647407 13.7291429,4.29087407 L8,8.87407407 Z M9.48457143,8.46207407 L13.7274286,11.8556741 C13.5731429,11.9908741 13.3657143,12.0740741 13.1368571,12.0740741 L2.86314286,12.0740741 C2.63342857,12.0740741 2.42514286,11.9916741 2.27085714,11.8572741 L6.51542857,8.46207407 L8,9.67407407 L9.48457143,8.46207407 Z" id="Fill-1-Copy" fill="#FFFFFF"></path>
            </g>
            <g id="icon-call-hover" transform="translate(0.000000, 20.000000)" sketch:type="MSShapeGroup">
                <ellipse id="Oval-21" fill="#014E81" cx="7.99857302" cy="8.24568257" rx="7.84313725" ry="7.89473684"></ellipse>
                <path d="M8.00290877,8.73190021 C7.06825905,9.67281776 5.98603928,10.572025 5.55820417,10.1413752 C4.94572941,9.52498985 4.56795006,8.98786591 3.21774307,10.0802952 C1.86741802,11.173081 2.90454038,11.9011691 3.49789007,12.4985413 C4.18273319,13.1876523 6.73510489,12.5347852 9.2581987,9.99568629 C11.7807022,7.45575552 12.4297744,4.88659189 11.7445771,4.19700556 C11.1512274,3.59975226 10.427898,2.55604439 9.34272683,3.91537199 C8.25720149,5.27410543 8.7905787,5.654489 9.40317152,6.27111203 C9.83077052,6.70176185 8.93767653,7.79110148 8.00290877,8.73190021" id="Fill-1" fill="#FFFFFF"></path>
            </g>
            <g id="icon-call" sketch:type="MSShapeGroup">
                <ellipse id="Oval-21" fill="#7ED321" cx="7.99857302" cy="8.24568257" rx="7.84313725" ry="7.89473684"></ellipse>
                <path d="M8.00290877,8.73190021 C7.06825905,9.67281776 5.98603928,10.572025 5.55820417,10.1413752 C4.94572941,9.52498985 4.56795006,8.98786591 3.21774307,10.0802952 C1.86741802,11.173081 2.90454038,11.9011691 3.49789007,12.4985413 C4.18273319,13.1876523 6.73510489,12.5347852 9.2581987,9.99568629 C11.7807022,7.45575552 12.4297744,4.88659189 11.7445771,4.19700556 C11.1512274,3.59975226 10.427898,2.55604439 9.34272683,3.91537199 C8.25720149,5.27410543 8.7905787,5.654489 9.40317152,6.27111203 C9.83077052,6.70176185 8.93767653,7.79110148 8.00290877,8.73190021" id="Fill-1" fill="#FFFFFF"></path>
            </g>
        </g>
    </g>
</svg>