<?xml version="1.0" encoding="UTF-8" standalone="no"?>
<svg width="100px" height="100px" viewBox="0 0 150 150" version="1.1" xmlns="http://www.w3.org/2000/svg" xmlns:xlink="http://www.w3.org/1999/xlink" xmlns:sketch="http://www.bohemiancoding.com/sketch/ns">
    <!-- Generator: Sketch 3.3.3 (12072) - http://www.bohemiancoding.com/sketch -->
    <title>logo-loading</title>
    <desc>Created with Sketch.</desc>
    <defs></defs>
    <g id="Page-1" stroke="none" stroke-width="1" fill="none" fill-rule="evenodd" sketch:type="MSPage">
        <g id="logo-loading" sketch:type="MSLayerGroup" fill="#ffffff">
            <path d="M21.5038462,90.1863636 C22.7108392,94.4734266 24.4262238,98.5405594 26.5853147,102.318182 L17.0552448,112.739161 C14.3251748,115.472727 14.3251748,119.887762 17.0552448,122.61993 L27.3797203,132.944406 C30.1129371,135.675175 34.5276224,135.675175 37.2604895,132.944406 L47.6811189,123.415035 C51.4597902,125.573776 55.5265734,127.289161 59.8143357,128.495105 L60.7048951,142.664685 C60.7048951,146.538811 63.8188811,149.653147 67.6940559,149.653147 L82.3062937,149.653147 C86.1804196,149.653147 89.2947552,146.538811 89.2947552,142.664685 L90.1814685,128.495105 C94.4727273,127.289161 98.5395105,125.573776 102.318881,123.415035 L112.738462,132.944406 C115.471678,135.675175 119.887413,135.675175 122.61958,132.944406 L132.944056,122.61993 C135.674825,119.888112 135.674825,115.473077 132.944056,112.739161 L123.414336,102.318182 C125.573077,98.5402098 127.288462,94.4730769 128.494755,90.1863636 L142.663986,89.2951049 C146.538112,89.2951049 149.652448,86.1811189 149.652448,82.306993 L149.652448,67.6947552 C149.652448,63.8185315 146.538112,60.7048951 142.663986,60.7048951 L128.494755,59.8164336 C127.288462,55.5269231 125.573077,51.4604895 123.414336,47.6804196 L132.944056,37.2611888 C135.674825,34.5283217 135.674825,30.1136364 132.944056,27.3800699 L122.61958,17.0555944 C119.887762,14.3241259 115.472028,14.3241259 112.738462,17.0555944 L102.318881,26.5856643 C98.5395105,24.4269231 94.4730769,22.7111888 90.1814685,21.5041958 L89.2947552,7.33601399 C89.2947552,3.45979021 86.1804196,0.346153846 82.3062937,0.346153846 L67.6940559,0.346153846 C63.8188811,0.346153846 60.7048951,3.45979021 60.7048951,7.33601399 L59.8143357,21.5041958 C55.5265734,22.7111888 51.4597902,24.4265734 47.6811189,26.5856643 L37.2604895,17.0555944 C34.5276224,14.3241259 30.1129371,14.3241259 27.3797203,17.0555944 L17.0552448,27.3800699 C14.3251748,30.1136364 14.3251748,34.5283217 17.0552448,37.2611888 L26.5853147,47.6804196 C24.4262238,51.4608392 22.7108392,55.5272727 21.5038462,59.8164336 L7.33566434,60.7048951 C3.46083916,60.7048951 0.346503497,63.8185315 0.346503497,67.6947552 L0.346503497,82.306993 C0.346503497,86.1811189 3.46083916,89.2951049 7.33566434,89.2951049 L21.5038462,90.1863636 L21.5038462,90.1863636 Z M116.499476,75.0000854 C116.499476,97.9232486 97.9230738,116.49965 74.9999105,116.49965 C52.0767473,116.49965 33.4994755,97.9232486 33.4994755,75.0000854 C33.4994755,52.0769222 52.0767473,33.4996503 74.9999105,33.4996503 C97.9226387,33.4996503 116.499476,52.0773572 116.499476,75.0000854 Z" id="Shape" sketch:type="MSShapeGroup"></path>
        </g>
    </g>
</svg>