<?xml version="1.0" encoding="UTF-8" standalone="no"?>
<svg width="128px" height="128px" viewBox="0 0 128 128" version="1.1" xmlns="http://www.w3.org/2000/svg" xmlns:xlink="http://www.w3.org/1999/xlink" xmlns:sketch="http://www.bohemiancoding.com/sketch/ns">
    <!-- Generator: Sketch 3.3.3 (12072) - http://www.bohemiancoding.com/sketch -->
    <title>onebox-logo</title>
    <desc>Created with Sketch.</desc>
    <defs></defs>
    <g id="Page-1" stroke="none" stroke-width="1" fill="none" fill-rule="evenodd" sketch:type="MSPage">
        <g id="onebox-logo" sketch:type="MSLayerGroup">
            <path d="M15.813406,0.434716981 C17.1631608,0.279460916 18.5233787,0.355363881 19.880109,0.345013477 C50.2304087,0.348463612 80.5807084,0.341563342 110.931008,0.345013477 C116.009155,0.517520216 120.940817,3.05681941 124.013515,7.05207547 C126.291008,9.94673854 127.546594,13.5831806 127.651226,17.2403235 L127.651226,106.264151 C127.623324,109.362372 127.888392,112.539946 126.915313,115.541563 C124.96218,122.607439 118.007629,127.951698 110.585722,127.968949 C79.65297,127.98965 48.720218,127.972399 17.7839782,127.979299 C13.5498638,128.00345 9.32970027,126.419838 6.18724796,123.604528 C3.12152589,120.927224 1.09514986,117.145876 0.512697548,113.14717 C0.272043597,111.553208 0.355749319,109.938544 0.348773842,108.334232 L0.348773842,16.8815094 C0.495258856,12.4308356 2.5146594,8.0871159 5.78964578,5.04409704 C8.50659401,2.48409704 12.0850136,0.848733154 15.813406,0.434716981 M17.5712262,10.2261995 C12.9569482,11.4130458 9.70637602,15.9982749 9.90517711,20.6766577 C9.85286104,48.9746631 9.90168937,77.2761186 9.88076294,105.574124 C9.89122616,108.344582 10.1458311,111.280647 11.7257766,113.65779 C13.5359128,116.662857 17.1003815,118.346523 20.5671935,118.436226 C49.4073025,118.443127 78.2508992,118.429326 107.091008,118.439677 C110.672916,118.446577 114.383869,116.749111 116.260272,113.65434 C117.721635,111.487655 117.993678,108.820701 118.073896,106.284852 C118.077384,78.2145553 118.073896,50.1477089 118.073896,22.0774124 C118.066921,20.1660377 118.039019,18.1994609 117.310082,16.3984906 C115.834768,12.5826415 111.904087,9.85703504 107.767629,9.85358491 C78.7077929,9.8328841 49.6479564,9.85358491 20.5881199,9.8432345 C19.5697003,9.85358491 18.5477929,9.94328841 17.5712262,10.2261995 M20.3021253,18.6134771 C20.9403815,18.3685175 21.6483924,18.4099191 22.3215259,18.3788679 C50.2234332,18.3926685 78.1288283,18.3754178 106.030736,18.3892183 C108.576785,18.2822642 111.084469,20.5283019 111.004251,23.0986523 C111.018202,50.2443127 111.004251,77.3934232 111.011226,104.542534 C111.168174,106.547062 109.930027,108.503288 108.112916,109.362372 C106.82594,110.024798 105.333188,109.886792 103.934605,109.904043 C76.7302452,109.890243 49.5223978,109.910943 22.3180381,109.893693 C19.412752,110.038598 16.7097548,107.447547 16.9504087,104.539084 C16.9573842,77.3934232 16.9364578,50.2477628 16.9608719,23.1021024 C16.866703,21.0389218 18.4466485,19.3207547 20.3021253,18.6134771" id="Fill-1" fill="#309A00" sketch:type="MSShapeGroup"></path>
            <path d="M17.5712262,10.2261995 C18.5477929,9.94328841 19.5697003,9.85358491 20.5881199,9.8432345 C49.6479564,9.85358491 78.7077929,9.8328841 107.767629,9.85358491 C111.904087,9.85703504 115.834768,12.5826415 117.310082,16.3984906 C118.039019,18.1994609 118.066921,20.1660377 118.073896,22.0774124 C118.073896,50.1477089 118.077384,78.2145553 118.073896,106.284852 C117.993678,108.820701 117.721635,111.487655 116.260272,113.65434 C114.383869,116.749111 110.672916,118.446577 107.091008,118.439677 C78.2508992,118.429326 49.4073025,118.443127 20.5671935,118.436226 C17.1003815,118.346523 13.5359128,116.662857 11.7257766,113.65779 C10.1458311,111.280647 9.89122616,108.344582 9.88076294,105.574124 C9.90168937,77.2761186 9.85286104,48.9746631 9.90517711,20.6766577 C9.70637602,15.9982749 12.9569482,11.4130458 17.5712262,10.2261995 M20.3021253,18.6134771 C18.4466485,19.3207547 16.866703,21.0389218 16.9608719,23.1021024 C16.9364578,50.2477628 16.9573842,77.3934232 16.9504087,104.539084 C16.7097548,107.447547 19.412752,110.038598 22.3180381,109.893693 C49.5223978,109.910943 76.7302452,109.890243 103.934605,109.904043 C105.333188,109.886792 106.82594,110.024798 108.112916,109.362372 C109.930027,108.503288 111.168174,106.547062 111.011226,104.542534 C111.004251,77.3934232 111.018202,50.2443127 111.004251,23.0986523 C111.084469,20.5283019 108.576785,18.2822642 106.030736,18.3892183 C78.1288283,18.3754178 50.2234332,18.3926685 22.3215259,18.3788679 C21.6483924,18.4099191 20.9403815,18.3685175 20.3021253,18.6134771 M91.1659946,38.4655526 C93.2970027,37.734124 95.8186376,39.2556334 96.1639237,41.4568194 C96.2859946,42.5401617 96.1674114,43.6373046 96.0209264,44.7137466 C95.8046866,45.8971429 94.7513896,46.618221 94.0887193,47.5463073 C85.3100817,60.2497035 76.5105177,72.9392992 67.7388556,85.6461456 C66.5948774,87.2504582 65.0951499,88.6995148 63.1838692,89.3481402 C59.8251771,90.6729919 55.7305722,89.6207008 53.3589101,86.9468464 C47.5448501,79.3703504 41.7238147,71.7973046 35.8888283,64.2346092 C34.9506267,62.9649596 33.6845777,61.7229111 33.6078474,60.056496 C33.4648501,58.5832884 33.2834877,56.9203235 34.26703,55.6713747 C35.5853951,53.6702965 38.6894823,53.1907278 40.520545,54.7708895 C46.8717166,61.0018329 53.1845232,67.2707278 59.5705722,73.4671698 C69.0607084,62.7165499 78.519455,51.9348787 87.9921526,41.1670081 C88.9233787,40.1457682 89.760436,38.8795687 91.1659946,38.4655526" id="Fill-2" fill="#F4F9FD" sketch:type="MSShapeGroup"></path>
        </g>
    </g>
</svg>