<?xml version="1.0" encoding="UTF-8" standalone="no"?>
<svg width="73px" height="26px" viewBox="0 0 73 26" version="1.1" xmlns="http://www.w3.org/2000/svg" xmlns:xlink="http://www.w3.org/1999/xlink" xmlns:sketch="http://www.bohemiancoding.com/sketch/ns">
    <!-- Generator: Sketch 3.3.3 (12072) - http://www.bohemiancoding.com/sketch -->
    <title>rating</title>
    <desc>Created with Sketch.</desc>
    <defs></defs>
    <g id="Page-1" stroke="none" stroke-width="1" fill="none" fill-rule="evenodd" sketch:type="MSPage">
        <g id="rating" sketch:type="MSLayerGroup">
            <g id="active" transform="translate(0.000000, 13.000000)" fill="#F6A623" sketch:type="MSShapeGroup">
                <path d="M6.5,0 L8.30142857,4.83531054 L13,4.83531054 L9.40642857,8.30076762 L10.5207143,13 L6.5,10.19679 L2.47928571,13 L3.59357143,8.30076762 L0,4.83531054 L4.69857143,4.83531054 L6.5,0 Z" id="Shape-Copy-3"></path>
                <path d="M21.5,0 L23.3014286,4.83531054 L28,4.83531054 L24.4064286,8.30076762 L25.5207143,13 L21.5,10.19679 L17.4792857,13 L18.5935714,8.30076762 L15,4.83531054 L19.6985714,4.83531054 L21.5,0 Z" id="Shape-Copy-4"></path>
                <path d="M36.5,0 L38.3014286,4.83531054 L43,4.83531054 L39.4064286,8.30076762 L40.5207143,13 L36.5,10.19679 L32.4792857,13 L33.5935714,8.30076762 L30,4.83531054 L34.6985714,4.83531054 L36.5,0 Z" id="Shape-Copy-5"></path>
                <path d="M51.5,0 L53.3014286,4.83531054 L58,4.83531054 L54.4064286,8.30076762 L55.5207143,13 L51.5,10.19679 L47.4792857,13 L48.5935714,8.30076762 L45,4.83531054 L49.6985714,4.83531054 L51.5,0 Z" id="Shape-Copy-6"></path>
                <path d="M66.5,0 L68.3014286,4.83531054 L73,4.83531054 L69.4064286,8.30076762 L70.5207143,13 L66.5,10.19679 L62.4792857,13 L63.5935714,8.30076762 L60,4.83531054 L64.6985714,4.83531054 L66.5,0 Z" id="Shape-Copy-7"></path>
            </g>
            <g id="normal" fill="#9B9B9B" sketch:type="MSShapeGroup">
                <path d="M6.5,0 L8.30142857,4.83531054 L13,4.83531054 L9.40642857,8.30076762 L10.5207143,13 L6.5,10.19679 L2.47928571,13 L3.59357143,8.30076762 L0,4.83531054 L4.69857143,4.83531054 L6.5,0 Z" id="Shape-Copy-3"></path>
                <path d="M21.5,0 L23.3014286,4.83531054 L28,4.83531054 L24.4064286,8.30076762 L25.5207143,13 L21.5,10.19679 L17.4792857,13 L18.5935714,8.30076762 L15,4.83531054 L19.6985714,4.83531054 L21.5,0 Z" id="Shape-Copy-4"></path>
                <path d="M36.5,0 L38.3014286,4.83531054 L43,4.83531054 L39.4064286,8.30076762 L40.5207143,13 L36.5,10.19679 L32.4792857,13 L33.5935714,8.30076762 L30,4.83531054 L34.6985714,4.83531054 L36.5,0 Z" id="Shape-Copy-5"></path>
                <path d="M51.5,0 L53.3014286,4.83531054 L58,4.83531054 L54.4064286,8.30076762 L55.5207143,13 L51.5,10.19679 L47.4792857,13 L48.5935714,8.30076762 L45,4.83531054 L49.6985714,4.83531054 L51.5,0 Z" id="Shape-Copy-6"></path>
                <path d="M66.5,0 L68.3014286,4.83531054 L73,4.83531054 L69.4064286,8.30076762 L70.5207143,13 L66.5,10.19679 L62.4792857,13 L63.5935714,8.30076762 L60,4.83531054 L64.6985714,4.83531054 L66.5,0 Z" id="Shape-Copy-7"></path>
            </g>
        </g>
    </g>
</svg>