<?xml version="1.0" encoding="UTF-8" standalone="no"?>
<svg width="356px" height="16px" viewBox="0 0 356 16" version="1.1" xmlns="http://www.w3.org/2000/svg" xmlns:xlink="http://www.w3.org/1999/xlink" xmlns:sketch="http://www.bohemiancoding.com/sketch/ns">
    <!-- Generator: Sketch 3.3.3 (12072) - http://www.bohemiancoding.com/sketch -->
    <title>types</title>
    <desc>Created with Sketch.</desc>
    <defs></defs>
    <g id="Page-1" stroke="none" stroke-width="1" fill="none" fill-rule="evenodd" sketch:type="MSPage">
        <g id="types" sketch:type="MSLayerGroup">
            <g id="new" transform="translate(200.000000, 0.000000)" sketch:type="MSShapeGroup">
                <rect id="Rectangle-217" fill="#F6A623" x="0" y="0" width="16" height="16"></rect>
                <path d="M8,2.13333333 L9.62590476,6.49751105 L13.8666667,6.49751105 L10.6232381,9.62530821 L11.6289524,13.8666667 L8,11.3365899 L4.37104762,13.8666667 L5.3767619,9.62530821 L2.13333333,6.49751105 L6.37409524,6.49751105 L8,2.13333333 Z" id="Shape" fill="#FFFFFF"></path>
            </g>
            <g id="edit" transform="translate(220.000000, 0.000000)" sketch:type="MSShapeGroup">
                <rect id="Rectangle-217" fill="#D8D8D8" x="0" y="0" width="16" height="16"></rect>
                <path d="M4.79411765,10.3823529 L6.38235294,11.9705882 L11.9411765,6.41176471 L10.3529412,4.82352941 L4.79411765,10.3823529 L4.79411765,10.3823529 Z M12.7352941,5.61764706 L13.5294118,4.82352941 L13.5294118,4.02941176 L12.7352941,3.23529412 L11.9411765,3.23529412 L11.1470588,4.02941176 L12.7352941,5.61764706 L12.7352941,5.61764706 Z M4.79411765,11.1764706 L4,12.7647059 L5.58823529,11.9705882 L4.79411765,11.1764706 L4.79411765,11.1764706 Z" id="Shape" fill="#FFFFFF"></path>
            </g>
            <g id="email" transform="translate(240.000000, 0.000000)" sketch:type="MSShapeGroup">
                <rect id="Rectangle-217" fill="#F6A623" x="0" y="0" width="16" height="16"></rect>
                <path d="M2,11.8673185 L2,5.22091852 L6.14257143,8.58251852 L2,11.8673185 Z M14,11.8673185 L9.85828571,8.58251852 L14,5.21931852 L14,11.8673185 Z M8,9.31851852 L2.27257143,4.73691852 C2.42771429,4.60251852 2.63514286,4.51851852 2.86314286,4.51851852 L13.1368571,4.51851852 C13.3665714,4.51851852 13.5748571,4.60091852 13.7291429,4.73531852 L8,9.31851852 Z M9.48457143,8.90651852 L13.7274286,12.3001185 C13.5731429,12.4353185 13.3657143,12.5185185 13.1368571,12.5185185 L2.86314286,12.5185185 C2.63342857,12.5185185 2.42514286,12.4361185 2.27085714,12.3017185 L6.51542857,8.90651852 L8,10.1185185 L9.48457143,8.90651852 Z" id="Fill-1-Copy" fill="#FFFFFF"></path>
            </g>
            <g id="sms" transform="translate(340.000000, 0.000000)" sketch:type="MSShapeGroup">
                <rect id="Rectangle-217" fill="#B34EE9" x="0" y="0" width="16" height="16"></rect>
                <path d="M2,7.48901165 C2,9.51202019 3.1175,11.2323158 5.0225,11.786059 C5.0075,11.8525082 5,11.9115741 5,11.9780233 L5,13.5580373 C5,14.0896308 5.3825,14.126547 5.7725,13.7500016 L8,11.8598914 L9.365,11.8598914 C11.9225,11.8598914 14,9.85164937 14,7.37087977 C14,4.89011017 11.9225,3 9.365,3 L6.635,3 C4.0775,3 2,5.00824206 2,7.48901165 L2,7.48901165 Z M5,5.95329714 L11,5.95329714 L11,6.69162143 L5,6.69162143 L5,5.95329714 L5,5.95329714 Z M5,7.42994571 L11,7.42994571 L11,8.16827 L5,8.16827 L5,7.42994571 L5,7.42994571 Z M5,8.90659428 L8.75,8.90659428 L8.75,9.64491857 L5,9.64491857 L5,8.90659428 L5,8.90659428 Z" id="Shape" fill="#FFFFFF"></path>
            </g>
            <g id="call" transform="translate(260.000000, 0.000000)" sketch:type="MSShapeGroup">
                <rect id="Rectangle-217" fill="#7ED321" x="0" y="0" width="16" height="16"></rect>
                <path d="M8.88130255,8.73042218 C7.88948404,9.72889192 6.7410692,10.6831001 6.28706512,10.2261092 C5.63712772,9.57202196 5.23624112,9.00204428 3.80344734,10.1612931 C2.37052829,11.3209203 3.47108729,12.0935426 4.10072981,12.7274537 C4.82746206,13.4587148 7.53595217,12.7659145 10.2133736,10.071509 C12.8901686,7.37622081 13.5789419,4.64991168 12.8518338,3.9181461 C12.2221913,3.2843612 11.4546187,2.17681388 10.3030719,3.61928613 C9.15114935,5.06112788 9.71715112,5.46477799 10.3672138,6.1191174 C10.8209673,6.57610835 9.87324634,7.73207855 8.88130255,8.73042218" id="Fill-1" fill="#FFFFFF"></path>
            </g>
            <g id="skype" transform="translate(280.000000, 0.000000)" sketch:type="MSShapeGroup">
                <rect id="Rectangle-217" fill="#1EA4DF" x="0" y="0" width="16" height="16"></rect>
                <path d="M7.79496158,5.6648585 C6.81486812,5.81163578 6.14253348,6.81066824 7.24573046,7.26046958 C7.99855587,7.5682284 8.98811883,7.62978016 9.80723075,7.96121273 C10.5221782,8.25476729 11.2039823,8.78032465 11.3839028,9.60417133 C11.6017014,10.6316123 10.8630802,11.4270505 10.3375229,11.796361 C8.27790618,13.2404601 4.69843442,11.8389738 5.01092799,10.2433627 C5.09615351,9.81250037 5.5506896,9.53315006 6.04783846,9.75568336 C6.69649934,10.0445032 6.68702984,10.8115328 8.05063813,11.0056576 C9.28167339,11.1808434 10.0344988,10.2102195 9.49473718,9.66098834 C8.68982951,8.83714166 6.0146952,9.249065 5.21925703,7.45459437 C4.82153795,6.55499168 5.39444282,5.4707337 5.84897891,5.05881037 C7.15103544,3.88459212 9.55628895,4.22075944 10.6642207,5.31922167 C11.5212106,6.17147685 10.8204675,7.32202134 9.96821228,6.70650372 C9.44738967,6.32772364 8.85081105,5.50861171 7.79969633,5.6648585 L7.79496158,5.6648585 Z M2.4588972,6.19515061 C2.54412272,6.66862571 2.65302199,6.87222 2.84714678,7.25100008 C3.05074107,7.65345391 2.49204046,9.00285795 3.54315518,10.8730846 C4.17761181,12.0046901 5.28080879,12.9989878 6.82907237,13.4203806 C7.44932475,13.5908317 8.17847641,13.6381792 8.83187204,13.5529537 C9.17750887,13.5056061 9.10175285,13.4866671 9.37636841,13.6334444 C10.0392335,13.9885508 10.981449,14.1021848 11.7816219,13.8417735 C13.0647394,13.4251154 14.2342229,12.0662418 13.9596074,10.2812407 C13.8980556,9.87405213 13.7607478,9.5000068 13.585562,9.18751324 C13.415111,8.87975442 13.4435195,9.0075927 13.4813975,8.60040411 C13.6944613,6.1572726 12.0941155,3.76622334 9.57522795,3.04180644 C8.97391457,2.87135541 8.25423242,2.80980364 7.62451054,2.88082491 C7.25046521,2.92343767 7.36409923,2.93290717 7.08001417,2.78139514 C6.35086252,2.39314555 5.48440309,2.27477678 4.62741316,2.54939234 C3.32535663,2.96605043 2.12272988,4.36280197 2.4588972,6.19041586 L2.4588972,6.19515061 Z" id="Shape" fill="#FEFEFE"></path>
            </g>
            <g id="meeting" transform="translate(300.000000, 0.000000)" sketch:type="MSShapeGroup">
                <rect id="Rectangle-217" fill="#7ED321" x="0" y="0" width="16" height="16"></rect>
                <path d="M4.11764706,6.07692308 C4.11764706,4.9 5.03529412,4 6.23529412,4 C7.43529412,4 8.35294118,4.9 8.35294118,6.07692308 C8.35294118,7.25384615 7.43529412,8.15384615 6.23529412,8.15384615 C5.03529412,8.15384615 4.11764706,7.25384615 4.11764706,6.07692308 L4.11764706,6.07692308 Z M6.23529412,9.53846154 C2.98823529,9.53846154 2,11.8230769 2,11.8230769 L2,13 L10.4705882,13 L10.4705882,11.8230769 C10.4705882,11.8230769 9.48235294,9.53846154 6.23529412,9.53846154 L6.23529412,9.53846154 Z" id="Shape" fill="#FFFFFF"></path>
                <g id="Group" transform="translate(8.352941, 4.000000)" fill="#FFFFFF">
                    <ellipse id="Oval" cx="2.47058824" cy="1.73076923" rx="1.76470588" ry="1.73076923"></ellipse>
                    <path d="M2.47058824,4.84615385 C1.62352941,4.84615385 0.988235294,5.05384615 0.494117647,5.4 C2.11764706,6.16153846 2.75294118,7.47692308 2.75294118,7.61538462 L2.75294118,7.68461538 L5.64705882,7.68461538 L5.64705882,6.78461538 C5.64705882,6.71538462 4.87058824,4.84615385 2.47058824,4.84615385 L2.47058824,4.84615385 Z" id="Shape"></path>
                </g>
            </g>
            <g id="order" transform="translate(320.000000, 0.000000)" sketch:type="MSShapeGroup">
                <rect id="Rectangle-217" fill="#7319C3" x="0" y="0" width="16" height="16"></rect>
                <g id="Group" transform="translate(2.000000, 2.000000)" fill="#FFFFFF">
                    <path d="M10.2277925,0 L1.76326415,0 C0.776377358,0 0,0.774520548 0,1.7609863 L0,10.222137 C0,11.2086027 0.776377358,12 1.76326415,12 L10.2277925,12 C11.2146792,12 12,11.2086027 12,10.222137 L12,1.7609863 C12,0.774520548 11.2146792,0 10.2277925,0 L10.2277925,0 Z M10.9811321,10.222137 C10.9811321,10.6283288 10.6341509,10.9589041 10.2277925,10.9589041 L1.76326415,10.9589041 C1.35690566,10.9589041 1.01886792,10.6283288 1.01886792,10.222137 L1.01886792,1.7609863 C1.01886792,1.35479452 1.35690566,1.04109589 1.76326415,1.04109589 L10.2277925,1.04109589 C10.6341509,1.04109589 10.9811321,1.35479452 10.9811321,1.7609863 L10.9811321,10.222137 L10.9811321,10.222137 Z" id="Shape"></path>
                    <path d="M8.99337736,4.2739726 L5.06264151,4.2739726 C4.77192453,4.2739726 4.53622642,4.47649315 4.53622642,4.76712329 C4.53622642,5.05775342 4.77186792,5.26027397 5.06264151,5.26027397 L8.99337736,5.26027397 C9.28409434,5.26027397 9.51979245,5.05775342 9.51979245,4.76712329 C9.51979245,4.47649315 9.28409434,4.2739726 8.99337736,4.2739726 L8.99337736,4.2739726 Z" id="Shape"></path>
                    <ellipse id="Oval" cx="3.10709434" cy="4.76909589" rx="0.526415094" ry="0.526191781"></ellipse>
                    <path d="M8.99337736,6.30136986 L5.06264151,6.30136986 C4.77192453,6.30136986 4.53622642,6.53134247 4.53622642,6.82191781 C4.53622642,7.11249315 4.77186792,7.34246575 5.06264151,7.34246575 L8.99337736,7.34246575 C9.28409434,7.34246575 9.51979245,7.11249315 9.51979245,6.82191781 C9.51979245,6.53134247 9.28409434,6.30136986 8.99337736,6.30136986 L8.99337736,6.30136986 Z" id="Shape"></path>
                    <ellipse id="Oval" cx="3.10709434" cy="6.83873973" rx="0.526415094" ry="0.526191781"></ellipse>
                    <path d="M8.99337736,8.38356164 L5.06264151,8.38356164 C4.77192453,8.38356164 4.53622642,8.61353425 4.53622642,8.90410959 C4.53622642,9.19468493 4.77186792,9.42465753 5.06264151,9.42465753 L8.99337736,9.42465753 C9.28409434,9.42465753 9.51979245,9.19468493 9.51979245,8.90410959 C9.51979245,8.61353425 9.28409434,8.38356164 8.99337736,8.38356164 L8.99337736,8.38356164 Z" id="Shape"></path>
                    <ellipse id="Oval" cx="3.10709434" cy="8.90843836" rx="0.526415094" ry="0.526191781"></ellipse>
                    <path d="M8.99337736,2.19178082 L2.8754717,2.19178082 C2.58475472,2.19178082 2.3490566,2.42169863 2.3490566,2.71232877 C2.3490566,3.0029589 2.58469811,3.23287671 2.8754717,3.23287671 L8.99343396,3.23287671 C9.28415094,3.23287671 9.51984906,3.0029589 9.51984906,2.71232877 C9.51979245,2.42169863 9.28409434,2.19178082 8.99337736,2.19178082 L8.99337736,2.19178082 Z" id="Shape"></path>
                </g>
            </g>
            <g id="overdue" transform="translate(180.000000, 0.000000)" sketch:type="MSShapeGroup">
                <rect id="Rectangle-214" fill="#D0011B" x="0" y="0" width="16" height="16"></rect>
                <path d="M6.61532819,13.8524503 C5.71458229,13.6691099 5.27171556,13.2950955 4.97146693,12.7304072 C4.73877424,12.3270583 4.64119343,11.6596993 4.64119343,10.7209966 C4.64119343,9.94363342 3.2,9.46694843 3.2,8.73358692 C3.97314023,8.71891969 4.67872451,8.90226007 5.02401044,9.40827951 L5.09156638,8.97559622 C5.1966534,8.16889856 5.24919691,7.71421443 5.24919691,7.61887743 C5.24919691,7.08352353 5.07655395,6.64350662 4.72376181,6.29882671 C5.36929637,6.40149732 5.79715067,6.81217977 5.9998185,7.53087405 L6.04485579,7.53087405 L6.22500497,6.92951761 C6.36011685,6.44549901 6.4276728,6.10815272 6.4276728,5.92481234 C6.4276728,5.31612229 6.31507956,4.788102 6.08238687,4.34075148 C6.50273495,4.52409186 6.86303331,4.85410454 7.16328195,5.33078952 C7.32841869,5.05211214 7.41098707,4.692765 7.41098707,4.24541448 C7.41098707,4.13541026 7.39597463,3.97407072 7.36594977,3.76139589 C7.33592491,3.55605466 7.32841869,3.42404959 7.32091248,3.36538067 C7.32091248,2.72735616 7.45602436,2.32400733 7.73375435,2.13333333 C7.92891596,3.0867033 8.30422675,3.95206988 8.85968672,4.74410031 L9.35509696,6.3428284 L9.37761561,6.3428284 L9.37761561,6.18882248 L9.37761561,5.82214173 L9.40013425,5.5654652 C9.40013425,5.23545252 9.30255345,4.89077261 9.09237941,4.53142547 C9.35509696,4.59009439 9.63282694,4.788102 9.91055693,5.13278191 C10.1432496,5.4187929 10.3008802,5.7121375 10.4134734,5.99814849 C10.6011288,6.52616878 10.6912034,7.08352353 10.6912034,7.6555455 L10.6912034,8.43290871 L10.713722,8.43290871 C11.0214769,7.93422288 11.1866136,7.51620682 11.1866136,7.18619414 C11.1866136,6.99552015 11.1340701,6.83418061 11.0289831,6.68750831 C11.6144679,7.01752099 11.5093809,7.67021273 11.5093809,8.65291716 C11.5093809,8.68225162 11.4868622,8.89492646 11.441825,9.29827529 L11.441825,10.1636419 C11.5919493,10.0389704 11.9597538,9.65028881 12.7554127,8.36690617 C12.9430681,9.28360806 12.4776827,10.1783091 12.4776827,10.5669907 C12.4701765,11.4690254 11.9372352,12.2610558 11.4268125,12.8624122 C10.8713526,13.5224376 10.1357434,13.8524503 9.21998508,13.8524503 C8.88971158,13.8524503 8.52190701,13.7717805 8.11657135,13.6177746 C8.57445052,13.4711023 9.02482346,13.1410896 9.44517155,12.6350702 C9.87302585,12.1290507 10.1057185,11.6523657 10.1507558,11.1976816 L9.4226529,11.9090423 L9.67786424,11.3296867 C9.81297612,11.0143412 9.88053207,10.7209966 9.88053207,10.4643201 C9.88053207,10.2223108 9.8505072,10.0536376 9.79796369,9.96563426 C9.76793883,10.2736461 9.565271,10.618326 9.19746643,11.0070076 L8.8521805,11.476359 C8.80714321,11.4323573 8.77711834,11.3590211 8.77711834,11.2416833 C8.77711834,11.1096782 8.82966185,10.9190042 8.93474887,10.6623277 C9.0398359,10.3983176 9.09237941,10.1929763 9.09237941,10.0316368 C9.09237941,9.81896196 9.00981103,9.51828374 8.84467429,9.12960214 L8.46185728,8.43290871 L8.43933863,8.43290871 L8.43933863,9.48894928 C8.43933863,9.94363342 8.38679512,10.2809797 8.2817081,10.4936545 L8.04901541,11.2050152 C8.01899055,10.9850068 7.94392839,10.809 7.82382894,10.6696613 C7.62116111,10.4863209 7.48604922,10.1783091 7.41098707,9.75295942 L7.39597463,9.75295942 C7.25335653,10.0829721 7.18580059,10.4716537 7.18580059,10.9190042 C7.18580059,11.381022 7.35093734,11.8503733 7.68871705,12.3417256 C7.03567628,12.2390549 6.59280954,11.5936968 6.35261064,10.3983176 L6.33009199,10.3983176 C6.16495524,10.8310008 6.08238687,11.2563505 6.08238687,11.6743666 C6.08238687,12.1070499 6.23251119,12.5177323 6.54777225,12.9137475 C6.8555271,13.3097627 7.21582546,13.5664393 7.64367976,13.6837771 C7.39597463,13.837783 7.05068871,13.896452 6.61532819,13.8524503 L6.61532819,13.8524503 Z" id="Shape" fill="#FFFFFF"></path>
            </g>
            <g id="done" transform="translate(100.000000, 0.000000)" sketch:type="MSShapeGroup">
                <rect id="Rectangle-196" fill="#D8D8D8" x="0" y="0" width="16" height="16"></rect>
                <path d="M1.80814615,7.79844867 C1.52017442,8.10241155 1.53617285,8.7103373 1.82414458,9.00630116 L5.33579984,12.5658664 C5.63177078,12.8698293 6.22371267,12.8778283 6.52768283,12.5898635 L7.08762786,12.053929 L8.29550928,10.8940706 L14.1669329,5.29475444 C14.470903,5.00678961 14.4789023,4.4148619 14.1829313,4.11889805 L13.5029981,3.42298304 C13.2070271,3.12701919 12.6150852,3.12701919 12.3191143,3.41498402 L6.57567812,9.15028357 C6.27970718,9.44624743 5.68776529,9.4382484 5.39979356,9.14228455 L3.48798124,7.21451999 C3.20000951,6.91055711 2.62406605,6.91855613 2.33609432,7.23051803 L1.80814615,7.79844867 L1.80814615,7.79844867 Z" id="Shape" fill="#FFFFFF"></path>
            </g>
            <g id="done2" transform="translate(120.000000, 0.000000)" sketch:type="MSShapeGroup">
                <rect id="Rectangle-196" fill="#7ED321" x="0" y="0" width="16" height="16"></rect>
                <path d="M1.80814615,7.79844867 C1.52017442,8.10241155 1.53617285,8.7103373 1.82414458,9.00630116 L5.33579984,12.5658664 C5.63177078,12.8698293 6.22371267,12.8778283 6.52768283,12.5898635 L7.08762786,12.053929 L8.29550928,10.8940706 L14.1669329,5.29475444 C14.470903,5.00678961 14.4789023,4.4148619 14.1829313,4.11889805 L13.5029981,3.42298304 C13.2070271,3.12701919 12.6150852,3.12701919 12.3191143,3.41498402 L6.57567812,9.15028357 C6.27970718,9.44624743 5.68776529,9.4382484 5.39979356,9.14228455 L3.48798124,7.21451999 C3.20000951,6.91055711 2.62406605,6.91855613 2.33609432,7.23051803 L1.80814615,7.79844867 L1.80814615,7.79844867 Z" id="Shape" fill="#FFFFFF"></path>
            </g>
            <g id="freeze" transform="translate(140.000000, 0.000000)" sketch:type="MSShapeGroup">
                <rect id="Rectangle-196" fill="#219FD3" x="0" y="0" width="16" height="16"></rect>
                <path d="M13.1951107,10.445154 L11.6822294,9.57769083 L12.9971028,9.00000179 C13.1802368,8.91952374 13.2645662,8.70518118 13.1843537,8.52138311 C13.1057349,8.34356113 12.884885,8.25631016 12.7056022,8.33466339 L10.8986971,9.1284214 L8.79179219,7.9201881 L10.8886042,6.70982997 L12.7159608,7.50558002 C12.9014853,7.58552687 13.1162262,7.49402624 13.192853,7.31700107 C13.2724015,7.133203 13.1879394,6.91912605 13.0048053,6.8397104 L11.6701444,6.25856851 L13.1907282,5.38074678 C13.2746591,5.33227403 13.3346856,5.2539208 13.3596524,5.16016253 C13.3846192,5.06640427 13.3717374,4.96866194 13.3231319,4.88473103 C13.226452,4.71846283 12.9948451,4.65524904 12.8272489,4.75179615 L11.3168909,5.62364178 L11.4786438,4.19655066 C11.4897992,4.09973795 11.462442,4.00451886 11.4017514,3.92829047 C11.3413265,3.85259328 11.2551379,3.80505014 11.1596532,3.79455877 C10.9564661,3.7705216 10.7785113,3.9174007 10.7576613,4.11540859 L10.5524821,6.07570005 L8.4599198,7.2930967 L8.4599198,4.87570049 L10.0435846,3.69216837 C10.1184849,3.63718831 10.1674889,3.55591344 10.1815659,3.46321759 C10.1961742,3.36640488 10.1704106,3.26494409 10.1111808,3.18473164 C9.99551022,3.02789238 9.77452756,2.99190302 9.61596188,3.10863605 L8.4599198,3.97091993 L8.4599198,2.21859652 C8.4599198,2.00478518 8.24942851,1.85578125 8.06045115,1.85578125 C7.87253622,1.85578125 7.66310734,2.00478518 7.66310734,2.21859652 L7.66310734,3.96029577 L6.52459513,3.10850324 C6.3688183,2.99283263 6.14172674,3.02789238 6.02579053,3.18459883 C5.96509998,3.26640491 5.93893797,3.36945933 5.953679,3.46706885 C5.96749042,3.55830388 6.01583037,3.63811793 6.08873871,3.69137156 L7.66310734,4.86454511 L7.66310734,7.29190148 L5.6018863,6.10119805 L5.38236447,4.13957857 C5.36045212,3.95657731 5.20799534,3.81859595 5.02738451,3.81859595 C5.01290909,3.81859595 4.99790245,3.81939276 4.98409104,3.82125199 C4.78807517,3.84369554 4.64557854,4.02364236 4.66656127,4.22404069 L4.83415749,5.65139742 L3.28820851,4.76467795 C3.23349406,4.73346946 3.17134268,4.7168692 3.1085273,4.7168692 C2.97864687,4.7168692 2.85806258,4.78672309 2.79378638,4.89933925 C2.69511443,5.07131794 2.75474257,5.29336302 2.92791648,5.3948238 L4.48369281,6.28698816 L3.15128957,6.87211411 C3.06231218,6.91115792 2.99391911,6.98233984 2.95899216,7.07251245 C2.92379961,7.16281786 2.92605725,7.2614898 2.96496825,7.34980318 C3.04146225,7.52616434 3.2554064,7.61620415 3.44292293,7.53731972 L5.26735787,6.73625759 L7.33575022,7.92218014 L5.2629754,9.11885965 L3.45407831,8.33094493 C3.27439709,8.25299011 3.05421125,8.34050668 2.97665484,8.51885987 C2.89644238,8.70199393 2.9806389,8.91646929 3.16443697,8.99721295 L4.48077116,9.57038672 L2.93734542,10.4614887 C2.76510113,10.5624182 2.7058714,10.7848617 2.80534016,10.9573716 C2.86988197,11.069191 2.99073186,11.1386464 3.12008108,11.1386464 C3.18449009,11.1386464 3.24743827,11.121515 3.30095751,11.0900409 L4.85474181,10.1929629 L4.68993444,11.6407711 C4.67931027,11.7373182 4.7068003,11.8321389 4.76762365,11.9081017 C4.8281814,11.9836661 4.91450275,12.031342 5.0074642,12.041435 C5.02167402,12.043427 5.03694626,12.0438254 5.0520857,12.0438254 C5.23668059,12.0438254 5.39152781,11.9054456 5.41237774,11.7208508 L5.62008018,9.74103738 L7.66310734,8.5528572 L7.66310734,10.9645429 L6.2601862,12.1381149 C6.11038545,12.2636128 6.09338679,12.4926964 6.22114239,12.6471452 C6.28834024,12.7304121 6.3947147,12.7800801 6.50573724,12.7800801 C6.60600281,12.7800801 6.67333346,12.7370522 6.72366545,12.6970788 L7.66310734,11.9091641 L7.66310734,13.6371847 C7.66310734,13.8509961 7.87253622,14 8.06045115,14 C8.24942851,14 8.4599198,13.8509961 8.4599198,13.6371847 L8.4599198,11.8974775 L9.41383712,12.6986724 C9.57266841,12.8265608 9.78754217,12.796282 9.90932167,12.6487389 C9.97041063,12.5752993 10.0026815,12.4840643 10.0000255,12.3915012 C9.99723665,12.2909701 9.95367757,12.2007975 9.87798038,12.1377165 L8.4599198,10.9525907 L8.4599198,8.54714671 L10.5459748,9.75245836 L10.7672231,11.7325373 C10.7891354,11.9151402 10.9419906,12.0528559 11.1229999,12.0528559 C11.1401313,12.0528559 11.1507555,12.0519263 11.1624421,12.0501999 C11.2580596,12.0397085 11.3438497,11.9921654 11.4040091,11.9167338 C11.4648324,11.8405054 11.4921896,11.7450207 11.4809015,11.6479424 L11.3123756,10.2021262 L12.8341546,11.0747686 C12.8887363,11.1062427 12.9511533,11.122843 13.0146326,11.122843 C13.1446459,11.122843 13.2652302,11.0528563 13.329108,10.9402401 C13.4280455,10.7675974 13.3682846,10.5454196 13.1951107,10.445154 L13.1951107,10.445154 Z" id="Shape" fill="#FFFFFF"></path>
            </g>
            <g id="remove" transform="translate(160.000000, 0.000000)" sketch:type="MSShapeGroup">
                <rect id="Rectangle-196" fill="#D8D8D8" x="0" y="0" width="16" height="16"></rect>
                <path d="M3.71428571,13.4285714 C3.71428571,14.2178571 4.35357143,14.8571429 5.14285714,14.8571429 L10.8571429,14.8571429 C11.6464286,14.8571429 12.2857143,14.2178571 12.2857143,13.4285714 L12.2857143,4.85714286 L3.71428571,4.85714286 L3.71428571,13.4285714 L3.71428571,13.4285714 Z M10.5,2.71428571 L9.78571429,2 L6.21428571,2 L5.5,2.71428571 L3,2.71428571 L3,4.14285714 L13,4.14285714 L13,2.71428571 L10.5,2.71428571 Z" id="Shape" fill="#FFFFFF"></path>
            </g>
            <g id="warning" sketch:type="MSShapeGroup">
                <rect id="Rectangle-217" fill="#FFCD00" x="0" y="0" width="16" height="16"></rect>
                <path d="M6.97916667,11.8622615 C6.97916667,11.7156197 7.02973282,11.5639212 7.08029898,11.4172794 C7.13086513,11.2706375 7.22694083,11.1695052 7.32807313,11.0734295 C7.42920544,10.9722972 7.57584729,10.8762215 7.72248914,10.8256553 C7.86913099,10.7750892 8.02082946,10.724523 8.21803746,10.724523 C8.41524546,10.724523 8.56188731,10.7750892 8.71358578,10.8256553 C8.86022763,10.8762215 9.01192609,10.9722972 9.10800178,11.0734295 C9.20913409,11.1745618 9.30520979,11.2706375 9.35577594,11.4172794 C9.4063421,11.5639212 9.45690825,11.7156197 9.45690825,11.8622615 C9.45690825,12.0089034 9.4063421,12.1606018 9.35577594,12.3072437 C9.30520979,12.4538855 9.20913409,12.5550178 9.10800178,12.6510935 C9.00686947,12.7522258 8.86022763,12.8483015 8.71358578,12.8988677 C8.56694393,12.9494338 8.41524546,13 8.21803746,13 C8.02082946,13 7.87418761,12.9494338 7.72248914,12.8988677 C7.57584729,12.8483015 7.47471498,12.7522258 7.32807313,12.6510935 C7.22694083,12.5499612 7.13086513,12.4538855 7.08029898,12.3072437 C7.02973282,12.1606018 6.97916667,12.0594695 6.97916667,11.8622615 L6.97916667,11.8622615 Z M9.05743563,9.59184117 L7.27750698,9.59184117 L7.02973282,2.13333333 L9.30015317,2.13333333 L9.05743563,9.59184117 L9.05743563,9.59184117 Z" id="Shape" fill="#FFFFFF"></path>
            </g>
            <g id="list" transform="translate(20.000000, 0.000000)" sketch:type="MSShapeGroup">
                <rect id="Rectangle-217" fill="#0375C2" x="0" y="0" width="16" height="16"></rect>
                <g id="Group" transform="translate(3.000000, 3.226667)" fill="#FFFFFF">
                    <rect id="Rectangle" x="0" y="0" width="6.48" height="1.08"></rect>
                    <rect id="Rectangle" x="0" y="2.16" width="10.8" height="1.08"></rect>
                    <rect id="Rectangle" x="0" y="4.32" width="9.72" height="1.08"></rect>
                    <rect id="Rectangle" x="0" y="6.48" width="10.8" height="1.08"></rect>
                    <rect id="Rectangle" x="0" y="8.64" width="7.56" height="1.08"></rect>
                </g>
            </g>
            <g id="selectable" transform="translate(40.000000, 0.000000)" sketch:type="MSShapeGroup">
                <rect id="Rectangle-217" fill="#0375C2" x="0" y="0" width="16" height="16"></rect>
                <path d="M8.8,12 L7.2,12 L7.2,8.8 L4,8.8 L4,7.2 L7.2,7.2 L7.2,4 L8.8,4 L8.8,7.2 L12,7.2 L12,8.8 L8.8,8.8 L8.8,12 Z" id="Path" fill="#FFFFFF"></path>
            </g>
            <g id="unselectable" transform="translate(60.000000, 0.000000)" sketch:type="MSShapeGroup">
                <rect id="Rectangle-217" fill="#0375C2" x="0" y="0" width="16" height="16"></rect>
                <path d="M11.5548182,5.09961366 C11.6686364,5.21343185 11.6686364,5.3999773 11.5548182,5.51379548 L9.27263636,7.79379548 C9.15881818,7.90725003 9.15881818,8.09415912 9.27263636,8.20834094 L11.5537273,10.4890682 C11.6675455,10.6028864 11.6675455,10.7894318 11.5537273,10.9036137 L10.7228182,11.7316137 C10.6086364,11.8450682 10.4217273,11.8450682 10.3075455,11.7316137 L8.02718182,9.45125003 C7.91336364,9.33743185 7.72609091,9.33743185 7.61227273,9.45125003 L5.33009091,11.7301591 C5.21627273,11.8439773 5.029,11.8439773 4.91518182,11.7301591 L4.08536364,10.9010682 C3.97154545,10.78725 3.97154545,10.6007046 4.08536364,10.4865228 L6.36827273,8.20688639 C6.48209091,8.09343185 6.48209091,7.90652275 6.36827273,7.79234094 L4.08718182,5.51125003 C3.973,5.39743185 3.973,5.21052275 4.08718182,5.09670457 L4.91772727,4.26834094 C5.03227273,4.15488639 5.21881818,4.15488639 5.333,4.26870457 L7.613,6.54870457 C7.72718182,6.66288639 7.91409091,6.66288639 8.02790909,6.54906821 L10.3100909,4.27015912 C10.4235455,4.15670457 10.6104545,4.15670457 10.725,4.27015912 L11.5548182,5.09961366 L11.5548182,5.09961366 Z" id="Shape" fill="#FFFFFF"></path>
            </g>
            <g id="disabled" transform="translate(80.000000, 0.000000)" sketch:type="MSShapeGroup">
                <rect id="Rectangle-217" fill="#D8D8D8" x="0" y="0" width="16" height="16"></rect>
                <path d="M11.8888889,6.90909091 L11.8888889,5.81818182 C11.8888889,3.70945455 10.1477778,2 8,2 C5.85222222,2 4.11111111,3.70945455 4.11111111,5.81818182 L4.11111111,6.90909091 L3,6.90909091 L3,14 L13,14 L13,6.90909091 L11.8888889,6.90909091 L11.8888889,6.90909091 Z M5.22222222,5.81818182 C5.22222222,4.31436364 6.46833333,3.09090909 8,3.09090909 C9.53166667,3.09090909 10.7777778,4.31436364 10.7777778,5.81818182 L10.7777778,6.90909091 L5.22222222,6.90909091 L5.22222222,5.81818182 L5.22222222,5.81818182 Z M11.8888889,12.9090909 L4.11111111,12.9090909 L4.11111111,8 L11.8888889,8 L11.8888889,12.9090909 L11.8888889,12.9090909 Z" id="Shape" fill="#FFFFFF"></path>
                <path d="M7.44444444,10.5150909 L7.44444444,11.8181818 L8.55555556,11.8181818 L8.55555556,10.5150909 C8.725,10.3650909 8.83333333,10.1507273 8.83333333,9.90909091 C8.83333333,9.45745455 8.46,9.09090909 8,9.09090909 C7.54,9.09090909 7.16666667,9.45745455 7.16666667,9.90909091 C7.16666667,10.1507273 7.275,10.3650909 7.44444444,10.5150909 L7.44444444,10.5150909 Z" id="Shape" fill="#FFFFFF"></path>
            </g>
        </g>
    </g>
</svg>